<?xml version="1.0" encoding="utf-8"?>
<!-- Generator: Adobe Illustrator 16.0.0, SVG Export Plug-In . SVG Version: 6.00 Build 0)  -->
<!DOCTYPE svg PUBLIC "-//W3C//DTD SVG 1.1//EN" "http://www.w3.org/Graphics/SVG/1.1/DTD/svg11.dtd">
<svg version="1.1" id="Layer_1" xmlns="http://www.w3.org/2000/svg" xmlns:xlink="http://www.w3.org/1999/xlink" x="0px" y="0px"
	 width="62.833px" height="63.5px" viewBox="0 0 62.833 63.5" enable-background="new 0 0 62.833 63.5" xml:space="preserve">
<g>
	<path fill="#1cff94" d="M18.961,21.033L31.417,8.579l12.455,12.455c0.781,0.781,2.047,0.781,2.828,0
		c0.781-0.781,0.781-2.047,0-2.828L32.831,4.336c-0.781-0.781-2.047-0.781-2.828,0l-13.87,13.869c-0.781,0.781-0.781,2.047,0,2.828
		C16.914,21.814,18.18,21.814,18.961,21.033z"/>
	<path fill="#1cff94" d="M16.133,45.294l13.87,13.869c0.781,0.781,2.047,0.781,2.828,0L46.7,45.294c0.781-0.781,0.781-2.047,0-2.828
		s-2.047-0.781-2.828,0L31.417,54.921L18.961,42.466c-0.781-0.781-2.047-0.781-2.828,0C15.352,43.248,15.352,44.513,16.133,45.294z"
		/>
</g>
</svg>
