<?xml version="1.0" encoding="utf-8"?>
<!-- Generator: Adobe Illustrator 16.0.0, SVG Export Plug-In . SVG Version: 6.00 Build 0)  -->
<!DOCTYPE svg PUBLIC "-//W3C//DTD SVG 1.1//EN" "http://www.w3.org/Graphics/SVG/1.1/DTD/svg11.dtd">
<svg version="1.1" id="Layer_1" xmlns="http://www.w3.org/2000/svg" xmlns:xlink="http://www.w3.org/1999/xlink" x="0px" y="0px"
	 width="49.439px" height="49.437px" viewBox="0 0 49.439 49.437" enable-background="new 0 0 49.439 49.437" xml:space="preserve">
<path fill="#FFFFFF" d="M49.352,10.232c-1.812,0.805-3.76,1.348-5.805,1.591c2.087-1.25,3.689-3.23,4.443-5.592c-1.953,1.159-4.115,2-6.418,2.454
	c-1.843-1.964-4.47-3.192-7.377-3.192c-5.581,0-10.106,4.525-10.106,10.107c0,0.792,0.089,1.563,0.262,2.303
	c-8.4-0.421-15.848-4.444-20.833-10.56c-0.87,1.492-1.368,3.228-1.368,5.081c0,3.506,1.784,6.6,4.496,8.413
	c-1.656-0.053-3.215-0.507-4.578-1.265c-0.001,0.042-0.001,0.084-0.001,0.128c0,4.896,3.484,8.982,8.108,9.91
	c-0.848,0.23-1.741,0.355-2.663,0.355c-0.652,0-1.285-0.062-1.902-0.182c1.287,4.016,5.019,6.938,9.441,7.02
	c-3.459,2.711-7.816,4.326-12.552,4.326c-0.815,0-1.62-0.049-2.411-0.141c4.474,2.867,9.786,4.541,15.493,4.541
	c18.59,0,28.756-15.402,28.756-28.758c0-0.438-0.01-0.875-0.029-1.308C46.283,14.04,47.998,12.26,49.352,10.232z"/>
</svg>
