<?xml version="1.0" encoding="utf-8"?>
<!-- Generator: Adobe Illustrator 16.0.0, SVG Export Plug-In . SVG Version: 6.00 Build 0)  -->
<!DOCTYPE svg PUBLIC "-//W3C//DTD SVG 1.1//EN" "http://www.w3.org/Graphics/SVG/1.1/DTD/svg11.dtd">
<svg version="1.1" id="Layer_1" xmlns="http://www.w3.org/2000/svg" xmlns:xlink="http://www.w3.org/1999/xlink" x="0px" y="0px"
	 width="841.89px" height="595.28px" viewBox="0 0 841.89 595.28" enable-background="new 0 0 841.89 595.28" xml:space="preserve">
<g>
	<path fill="#231F20" d="M368.111,157.41c12.625,0,24.768,3.884,33.315,10.657c4.138,3.278,11.08,10.219,11.08,19.875
		c0,9.657-6.941,16.598-11.08,19.876c-8.548,6.772-20.691,10.656-33.315,10.656s-24.768-3.884-33.315-10.656
		c-4.138-3.278-11.079-10.22-11.079-19.876c0-9.656,6.941-16.598,11.079-19.875C343.343,161.294,355.486,157.41,368.111,157.41
		 M368.111,135.065c-36.858,0-66.738,23.674-66.738,52.876s29.88,52.877,66.738,52.877c36.859,0,66.739-23.674,66.739-52.877
		S404.97,135.065,368.111,135.065"/>
	<rect x="268.96" y="403.147" fill="#231F20" width="25.835" height="18.853"/>
	
		<rect x="268.96" y="403.147" fill="none" stroke="#231F20" stroke-width="7" stroke-linejoin="round" stroke-miterlimit="10" width="25.835" height="18.853"/>
	<rect x="444.221" y="403.147" fill="#231F20" width="25.834" height="18.853"/>
	
		<rect x="444.221" y="403.147" fill="none" stroke="#231F20" stroke-width="7" stroke-linejoin="round" stroke-miterlimit="10" width="25.834" height="18.853"/>
	<path fill="#6D6E71" d="M497.287,411.526H238.935c0-8.871-7.189-16.059-16.06-16.059V208.029c8.87,0,16.06-7.191,16.06-16.06
		h258.353c0,8.869,7.189,16.06,16.059,16.06v187.439C504.477,395.468,497.287,402.655,497.287,411.526"/>
	<path fill="none" stroke="#58595B" stroke-width="7" stroke-linejoin="round" stroke-miterlimit="10" d="M497.287,411.526H238.935
		c0-8.871-7.189-16.059-16.06-16.059V208.029c8.87,0,16.06-7.191,16.06-16.06h258.353c0,8.869,7.189,16.06,16.059,16.06v187.439
		C504.477,395.468,497.287,402.655,497.287,411.526z"/>
	<path fill="#414042" d="M481.206,397.261h-226.19c-7.328,0-13.267-5.94-13.267-13.267V219.502c0-7.327,5.939-13.267,13.267-13.267
		h226.19c7.327,0,13.267,5.939,13.267,13.267v164.492C494.473,391.32,488.533,397.261,481.206,397.261"/>
	<path fill="none" stroke="#231F20" stroke-width="12" stroke-miterlimit="10" d="M481.206,397.261h-226.19
		c-7.328,0-13.267-5.94-13.267-13.267V219.502c0-7.327,5.939-13.267,13.267-13.267h226.19c7.327,0,13.267,5.939,13.267,13.267
		v164.492C494.473,391.32,488.533,397.261,481.206,397.261z"/>
	<path fill="#00A79D" d="M420.424,266.13c-0.105,0.182-0.175,0.314-0.259,0.426c-0.719,0.992-1.452,1.969-2.178,2.96
		c-1.131,1.543-2.262,3.093-3.394,4.644c-0.963,1.305-1.934,2.604-2.87,3.931c-0.209,0.3-0.418,0.384-0.761,0.384
		c-5.16-0.006-10.321-0.006-15.488-0.006h-0.523c-0.035,0.118-0.07,0.195-0.09,0.279c-0.161,0.81-0.287,1.633-0.489,2.43
		c-0.224,0.921-0.496,1.822-0.769,2.73c-0.153,0.488-0.335,0.977-0.537,1.452c-0.621,1.452-1.305,2.87-2.115,4.232
		c-0.678,1.131-1.411,2.22-2.214,3.254c-0.956,1.235-2.003,2.402-3.121,3.505c-1.292,1.278-2.674,2.457-4.133,3.539
		c-1.899,1.411-3.903,2.661-5.998,3.765c-2.745,1.458-5.607,2.652-8.554,3.624c-2.696,0.894-5.447,1.593-8.24,2.115
		c-2.646,0.496-5.307,0.846-7.995,1.033c-0.495,0.029-0.991,0.069-1.543,0.105c0.112,0.16,0.175,0.272,0.259,0.369
		c0.544,0.622,1.089,1.243,1.634,1.865c0.726,0.817,1.452,1.633,2.171,2.45c0.719,0.823,1.438,1.647,2.157,2.465
		c0.901,1.02,1.801,2.031,2.695,3.052c0.706,0.802,1.404,1.6,2.102,2.396c0.901,1.019,1.802,2.039,2.703,3.058
		c0.705,0.81,1.417,1.619,2.129,2.43c0.873,0.992,1.76,1.983,2.64,2.982c0.873,0.997,1.746,2.004,2.625,2.994
		c0.922,1.055,1.851,2.109,2.78,3.156c0.691,0.79,1.382,1.578,2.074,2.361c0.879,0.997,1.767,1.988,2.646,2.988
		c0.887,1.005,1.759,2.024,2.646,3.029c0.88,0.999,1.767,1.984,2.646,2.982c0.887,1.004,1.767,2.024,2.653,3.029
		c1.034,1.174,2.074,2.34,3.107,3.513c0.901,1.021,1.788,2.054,2.681,3.072c1.202,1.362,2.41,2.717,3.61,4.078
		c1.048,1.18,2.075,2.38,3.122,3.561c1.369,1.551,2.737,3.094,4.106,4.644c0.153,0.176,0.272,0.378,0.412,0.559h-23.077
		c-0.042-0.056-0.07-0.126-0.112-0.181c-0.565-0.644-1.138-1.278-1.704-1.921c-0.88-0.999-1.746-2.003-2.625-3.003
		c-1.034-1.173-2.073-2.339-3.114-3.511c-0.886-1.006-1.759-2.025-2.646-3.032c-0.901-1.019-1.801-2.03-2.702-3.05
		c-0.873-0.999-1.746-2.005-2.626-3.004c-1.033-1.172-2.073-2.338-3.106-3.511c-0.887-1.013-1.767-2.026-2.654-3.039
		c-1.034-1.172-2.081-2.338-3.114-3.511c-1.062-1.209-2.108-2.423-3.177-3.631c-1.501-1.711-3.01-3.408-4.518-5.112
		c-1.292-1.458-2.577-2.918-3.861-4.385c-1.285-1.459-2.577-2.924-3.862-4.385c-1.284-1.466-2.576-2.925-3.861-4.392
		c-1.285-1.459-2.577-2.927-3.861-4.386c-1.369-1.563-2.737-3.134-4.12-4.691c-0.167-0.195-0.244-0.378-0.244-0.629
		c0-3.582-0.007-7.163-0.007-10.739c0-0.132,0.014-0.258,0.028-0.411c0.154-0.007,0.286-0.021,0.419-0.021
		c3.31,0.008,6.626,0,9.936,0.015c3.819,0.021,7.632-0.029,11.423-0.553c2.807-0.384,5.565-0.95,8.26-1.822
		c3.889-1.25,7.492-3.044,10.613-5.719c1.117-0.949,2.137-1.997,3.044-3.148c0.817-1.055,1.53-2.165,2.151-3.352
		c0.733-1.411,1.264-2.891,1.613-4.434c0.168-0.748,0.238-1.516,0.321-2.284c0.042-0.405,0.007-0.811,0.007-1.194
		c-0.048-0.035-0.063-0.042-0.07-0.049c-0.014-0.007-0.035-0.007-0.048-0.007c-0.015,0-0.029-0.006-0.042-0.006h-52.327
		c-0.028-0.007-0.056-0.007-0.084-0.015c-0.014-0.007-0.028-0.014-0.042-0.021c-0.007-0.014-0.007-0.028-0.021-0.063
		c0.287-0.391,0.58-0.795,0.873-1.201c0.544-0.754,1.089-1.508,1.641-2.255c0.726-0.984,1.453-1.969,2.178-2.96
		c0.559-0.761,1.104-1.529,1.662-2.291c0.754-1.04,1.53-2.067,2.276-3.107c0.21-0.3,0.433-0.447,0.832-0.447
		c8.121,0.015,16.241,0.015,24.362,0.015h17.156c-0.07-0.168-0.098-0.265-0.146-0.349c-0.209-0.378-0.426-0.74-0.635-1.11
		c-0.803-1.396-1.788-2.64-2.926-3.771c-1.668-1.648-3.589-2.919-5.698-3.924c-2.108-1.005-4.315-1.704-6.577-2.221
		c-3.826-0.873-7.708-1.256-11.612-1.396c-3.372-0.118-6.745-0.146-10.117-0.167c-4.246-0.028-8.491-0.007-12.736-0.007
		c-0.167,0-0.342-0.007-0.593-0.014c3.051-4.169,6.04-8.254,9.036-12.345h88.502c-0.112,0.188-0.202,0.391-0.328,0.565
		c-0.398,0.552-0.81,1.089-1.208,1.641c-0.719,0.978-1.424,1.962-2.136,2.94c-0.887,1.208-1.788,2.416-2.681,3.63
		c-0.775,1.055-1.571,2.102-2.318,3.184c-0.23,0.335-0.468,0.405-0.838,0.405c-5.173-0.007-10.348-0.007-15.529-0.007h-6.968
		c-0.147,0-0.301,0.014-0.552,0.021c1.816,1.843,3.22,3.84,4.358,6.019c1.138,2.186,1.934,4.49,2.492,6.913H420.424z"/>
</g>
<rect x="218" y="127.28" fill="none" width="300" height="300"/>
</svg>
