<?xml version="1.0" encoding="utf-8"?>
<!-- Generator: Adobe Illustrator 16.0.0, SVG Export Plug-In . SVG Version: 6.00 Build 0)  -->
<!DOCTYPE svg PUBLIC "-//W3C//DTD SVG 1.1//EN" "http://www.w3.org/Graphics/SVG/1.1/DTD/svg11.dtd">
<svg version="1.1" id="Layer_1" xmlns="http://www.w3.org/2000/svg" xmlns:xlink="http://www.w3.org/1999/xlink" x="0px" y="0px"
	 width="841.89px" height="595.28px" viewBox="0 0 841.89 595.28" enable-background="new 0 0 841.89 595.28" xml:space="preserve">
<g>
	<path fill="#414042" d="M516.039,260.917H247.134c-7.976,0-14.442-6.465-14.442-14.441V122.254c0-7.976,6.466-14.442,14.442-14.442
		h268.905c7.978,0,14.442,6.466,14.442,14.442v124.222C530.481,254.452,524.017,260.917,516.039,260.917"/>
	<path fill="#F1F2F2" d="M277.937,132.402h-28.43c-0.665,0-1.204-0.539-1.204-1.204v-11.179c0-0.666,0.539-1.204,1.204-1.204h28.43
		c0.665,0,1.204,0.539,1.204,1.204v11.179C279.141,131.863,278.602,132.402,277.937,132.402"/>
	<path fill="#F1F2F2" d="M317.281,132.402H288.85c-0.664,0-1.203-0.539-1.203-1.204v-11.179c0-0.666,0.54-1.204,1.203-1.204h28.431
		c0.665,0,1.204,0.539,1.204,1.204v11.179C318.484,131.863,317.945,132.402,317.281,132.402"/>
	<path fill="#F1F2F2" d="M356.624,132.402h-28.43c-0.664,0-1.203-0.539-1.203-1.204v-11.179c0-0.666,0.54-1.204,1.203-1.204h28.43
		c0.666,0,1.204,0.539,1.204,1.204v11.179C357.827,131.863,357.289,132.402,356.624,132.402"/>
	<path fill="#F1F2F2" d="M395.968,132.402h-28.431c-0.665,0-1.204-0.539-1.204-1.204v-11.179c0-0.666,0.539-1.204,1.204-1.204
		h28.431c0.665,0,1.203,0.539,1.203,1.204v11.179C397.171,131.863,396.633,132.402,395.968,132.402"/>
	<path fill="#F1F2F2" d="M435.312,132.402h-28.43c-0.664,0-1.204-0.539-1.204-1.204v-11.179c0-0.666,0.54-1.204,1.204-1.204h28.43
		c0.665,0,1.204,0.539,1.204,1.204v11.179C436.516,131.863,435.977,132.402,435.312,132.402"/>
	<path fill="#F1F2F2" d="M474.654,132.402h-28.43c-0.664,0-1.204-0.539-1.204-1.204v-11.179c0-0.666,0.54-1.204,1.204-1.204h28.43
		c0.665,0,1.204,0.539,1.204,1.204v11.179C475.858,131.863,475.319,132.402,474.654,132.402"/>
	<path fill="#F1F2F2" d="M512.464,132.402h-28.431c-0.664,0-1.202-0.539-1.202-1.204v-11.179c0-0.666,0.538-1.204,1.202-1.204
		h28.431c0.665,0,1.203,0.539,1.203,1.204v11.179C513.667,131.863,513.129,132.402,512.464,132.402"/>
	<path fill="#F1F2F2" d="M328.037,191.927h-15.517c-1.994,0-3.61-1.616-3.61-3.61V172.8c0-1.994,1.616-3.61,3.61-3.61h15.517
		c1.994,0,3.61,1.616,3.61,3.61v15.517C331.647,190.311,330.031,191.927,328.037,191.927"/>
	<path fill="#F1F2F2" d="M297.813,191.927h-15.517c-1.994,0-3.61-1.616-3.61-3.61V172.8c0-1.994,1.616-3.61,3.61-3.61h15.517
		c1.994,0,3.61,1.616,3.61,3.61v15.517C301.423,190.311,299.807,191.927,297.813,191.927"/>
	<path fill="#F1F2F2" d="M267.539,191.927h-15.517c-1.995,0-3.611-1.616-3.611-3.61V172.8c0-1.994,1.616-3.61,3.611-3.61h15.517
		c1.994,0,3.609,1.616,3.609,3.61v15.517C271.148,190.311,269.533,191.927,267.539,191.927"/>
	<path fill="#F1F2F2" d="M358.542,191.927h-15.517c-1.994,0-3.61-1.616-3.61-3.61V172.8c0-1.994,1.616-3.61,3.61-3.61h15.517
		c1.994,0,3.61,1.616,3.61,3.61v15.517C362.152,190.311,360.536,191.927,358.542,191.927"/>
	<path fill="#F1F2F2" d="M389.047,191.927H373.53c-1.994,0-3.61-1.616-3.61-3.61V172.8c0-1.994,1.616-3.61,3.61-3.61h15.517
		c1.994,0,3.611,1.616,3.611,3.61v15.517C392.658,190.311,391.041,191.927,389.047,191.927"/>
	<path fill="#F1F2F2" d="M419.551,191.927h-15.517c-1.994,0-3.61-1.616-3.61-3.61V172.8c0-1.994,1.616-3.61,3.61-3.61h15.517
		c1.995,0,3.612,1.616,3.612,3.61v15.517C423.163,190.311,421.546,191.927,419.551,191.927"/>
	<path fill="#F1F2F2" d="M450.057,191.927H434.54c-1.995,0-3.61-1.616-3.61-3.61V172.8c0-1.994,1.615-3.61,3.61-3.61h15.517
		c1.994,0,3.609,1.616,3.609,3.61v15.517C453.666,190.311,452.051,191.927,450.057,191.927"/>
	<path fill="#F1F2F2" d="M480.561,191.927h-15.516c-1.995,0-3.61-1.616-3.61-3.61V172.8c0-1.994,1.615-3.61,3.61-3.61h15.516
		c1.994,0,3.61,1.616,3.61,3.61v15.517C484.171,190.311,482.555,191.927,480.561,191.927"/>
	<path fill="#F1F2F2" d="M509.949,191.927h-15.518c-1.992,0-3.609-1.616-3.609-3.61V172.8c0-1.994,1.617-3.61,3.609-3.61h15.518
		c1.994,0,3.61,1.616,3.61,3.61v15.517C513.56,190.311,511.943,191.927,509.949,191.927"/>
	<path fill="#F1F2F2" d="M280.981,162.004h-30.21c-1.994,0-3.61-1.616-3.61-3.61v-15.68c0-1.995,1.617-3.611,3.61-3.611h30.21
		c1.994,0,3.61,1.616,3.61,3.611v15.68C284.592,160.388,282.976,162.004,280.981,162.004"/>
	<path fill="#F1F2F2" d="M311.206,162.004h-15.517c-1.994,0-3.61-1.616-3.61-3.61v-15.516c0-1.994,1.616-3.611,3.61-3.611h15.517
		c1.994,0,3.61,1.617,3.61,3.611v15.516C314.816,160.388,313.2,162.004,311.206,162.004"/>
	<path fill="#F1F2F2" d="M341.711,162.004h-15.517c-1.995,0-3.611-1.616-3.611-3.61v-15.516c0-1.994,1.616-3.611,3.611-3.611h15.517
		c1.994,0,3.61,1.617,3.61,3.611v15.516C345.321,160.388,343.705,162.004,341.711,162.004"/>
	<path fill="#F1F2F2" d="M372.215,162.004h-15.516c-1.995,0-3.61-1.616-3.61-3.61v-15.516c0-1.994,1.616-3.611,3.61-3.611h15.516
		c1.994,0,3.61,1.617,3.61,3.611v15.516C375.826,160.388,374.209,162.004,372.215,162.004"/>
	<path fill="#F1F2F2" d="M402.72,162.004h-15.516c-1.994,0-3.61-1.616-3.61-3.61v-15.516c0-1.994,1.616-3.611,3.61-3.611h15.516
		c1.995,0,3.61,1.617,3.61,3.611v15.516C406.33,160.388,404.715,162.004,402.72,162.004"/>
	<path fill="#F1F2F2" d="M433.225,162.004h-15.516c-1.994,0-3.611-1.616-3.611-3.61v-15.516c0-1.994,1.617-3.611,3.611-3.611h15.516
		c1.995,0,3.61,1.617,3.61,3.611v15.516C436.835,160.388,435.22,162.004,433.225,162.004"/>
	<path fill="#F1F2F2" d="M463.73,162.004h-15.517c-1.994,0-3.611-1.616-3.611-3.61v-15.516c0-1.994,1.617-3.611,3.611-3.611h15.517
		c1.994,0,3.61,1.617,3.61,3.611v15.516C467.341,160.388,465.725,162.004,463.73,162.004"/>
	<path fill="#F1F2F2" d="M511.199,161.922h-31.946c-1.993,0-3.61-1.616-3.61-3.61v-15.517c0-1.994,1.617-3.61,3.61-3.61h31.946
		c1.994,0,3.611,1.616,3.611,3.61v15.517C514.811,160.306,513.193,161.922,511.199,161.922"/>
	<path fill="#F1F2F2" d="M277.194,222.143h-26.422c-1.995,0-3.611-1.617-3.611-3.611v-15.68c0-1.994,1.616-3.611,3.611-3.611h26.422
		c1.994,0,3.61,1.617,3.61,3.611v15.68C280.804,220.526,279.188,222.143,277.194,222.143"/>
	<path fill="#F1F2F2" d="M511.199,222.616h-6.647c-1.995,0-3.611-1.616-3.611-3.611v-15.516c0-1.994,1.616-3.61,3.611-3.61h6.647
		c1.994,0,3.611,1.616,3.611,3.61v15.516C514.811,221,513.193,222.616,511.199,222.616"/>
	<path fill="#F1F2F2" d="M338.016,222.617H322.5c-1.995,0-3.611-1.617-3.611-3.611v-15.517c0-1.994,1.616-3.61,3.611-3.61h15.517
		c1.994,0,3.61,1.616,3.61,3.61v15.517C341.626,221,340.01,222.617,338.016,222.617"/>
	<path fill="#F1F2F2" d="M307.791,222.617h-15.517c-1.994,0-3.61-1.617-3.61-3.611v-15.517c0-1.994,1.616-3.61,3.61-3.61h15.517
		c1.994,0,3.611,1.616,3.611,3.61v15.517C311.402,221,309.785,222.617,307.791,222.617"/>
	<path fill="#F1F2F2" d="M368.521,222.617h-15.517c-1.994,0-3.61-1.617-3.61-3.611v-15.517c0-1.994,1.616-3.61,3.61-3.61h15.517
		c1.994,0,3.61,1.616,3.61,3.61v15.517C372.131,221,370.515,222.617,368.521,222.617"/>
	<path fill="#F1F2F2" d="M399.025,222.617h-15.517c-1.994,0-3.61-1.617-3.61-3.611v-15.517c0-1.994,1.616-3.61,3.61-3.61h15.517
		c1.994,0,3.61,1.616,3.61,3.61v15.517C402.635,221,401.02,222.617,399.025,222.617"/>
	<path fill="#F1F2F2" d="M429.53,222.617h-15.517c-1.994,0-3.61-1.617-3.61-3.611v-15.517c0-1.994,1.617-3.61,3.61-3.61h15.517
		c1.994,0,3.61,1.616,3.61,3.61v15.517C433.141,221,431.524,222.617,429.53,222.617"/>
	<path fill="#F1F2F2" d="M460.035,222.617h-15.517c-1.994,0-3.611-1.617-3.611-3.611v-15.517c0-1.994,1.617-3.61,3.611-3.61h15.517
		c1.994,0,3.609,1.616,3.609,3.61v15.517C463.645,221,462.029,222.617,460.035,222.617"/>
	<path fill="#F1F2F2" d="M490.541,222.617h-15.518c-1.995,0-3.61-1.617-3.61-3.611v-15.517c0-1.994,1.615-3.61,3.61-3.61h15.518
		c1.993,0,3.609,1.616,3.609,3.61v15.517C494.15,221,492.534,222.617,490.541,222.617"/>
	<path fill="#F1F2F2" d="M448.665,252.102H318.427c-1.995,0-3.611-1.616-3.611-3.61v-15.516c0-1.995,1.616-3.611,3.611-3.611
		h130.238c1.996,0,3.61,1.616,3.61,3.611v15.516C452.275,250.485,450.661,252.102,448.665,252.102"/>
	<path fill="#F1F2F2" d="M302.36,252.102h-15.517c-1.994,0-3.61-1.616-3.61-3.61v-15.516c0-1.995,1.616-3.611,3.61-3.611h15.517
		c1.994,0,3.61,1.616,3.61,3.611v15.516C305.971,250.485,304.354,252.102,302.36,252.102"/>
	<path fill="#F1F2F2" d="M480.561,252.102h-15.516c-1.995,0-3.61-1.616-3.61-3.61v-15.516c0-1.995,1.615-3.611,3.61-3.611h15.516
		c1.994,0,3.61,1.616,3.61,3.611v15.516C484.171,250.485,482.555,252.102,480.561,252.102"/>
	<path fill="#F1F2F2" d="M272.005,252.102h-19.984c-1.994,0-3.61-1.616-3.61-3.61v-15.516c0-1.995,1.616-3.611,3.61-3.611h19.984
		c1.995,0,3.611,1.616,3.611,3.611v15.516C275.616,250.485,274,252.102,272.005,252.102"/>
	<path fill="#F1F2F2" d="M511.199,252.102h-15.517c-1.994,0-3.61-1.616-3.61-3.61v-15.516c0-1.995,1.616-3.611,3.61-3.611h15.517
		c1.994,0,3.611,1.616,3.611,3.611v15.516C514.811,250.485,513.193,252.102,511.199,252.102"/>
	<path fill="#FFE8AE" d="M382.557,341.703v3.555c0,0.587-0.029,1.163-0.093,1.729c-0.093-1.663-0.274-3.3-0.533-4.902
		C382.146,341.969,382.352,341.842,382.557,341.703"/>
	<path fill="#FFE8AE" d="M367.101,265.026l-19.48,27.041c-0.605,0.839-1.321,1.517-2.105,2.026c-0.146,0.099-0.292,0.19-0.446,0.273
		c0.185,1.144,0.314,2.311,0.38,3.498c0.046,0.705,0.066,1.417,0.066,2.137v7.174c0,17.264-12.325,31.258-27.529,31.258h-37.24
		c-15.204,0-27.529-13.994-27.529-31.258v-7.174c0-0.721,0.02-1.432,0.066-2.137c-0.046-0.404-0.066-0.815-0.066-1.234v-77.857
		c0-4.807,3.432-8.705,7.666-8.705h0.669c4.234,0,7.667,3.897,7.667,8.705v18.851h4.554v-38.425c0-4.808,3.432-8.705,7.667-8.705
		h4.36c4.234,0,7.666,3.896,7.666,8.705v38.425h5.746v-53.46c0-4.808,3.433-8.705,7.667-8.705h4.356
		c4.233,0,7.667,3.897,7.667,8.705v53.46h6.927v-38.053c0-4.807,3.432-8.705,7.666-8.705h4.357c4.233,0,7.666,3.897,7.666,8.705
		v60.108l6.347-8.809c2.679-3.719,7.51-4.269,10.789-1.227l3.373,3.134C369.3,255.82,369.784,261.303,367.101,265.026"/>
	<path fill="#FFFFFF" d="M316.167,187.277c0,0.167-0.006,0.331-0.018,0.493c0.012,0.132,0.018,0.264,0.018,0.395v5.682
		c0,2.491-1.777,4.51-3.971,4.51h-6.188c-2.193,0-3.971-2.019-3.971-4.51v-5.682c0-0.131,0.006-0.263,0.018-0.395
		c-0.012-0.163-0.018-0.326-0.018-0.493v-0.128c0-4.024,2.872-7.285,6.416-7.285h1.299c3.544,0,6.416,3.261,6.416,7.285V187.277z"/>
	<path fill="#FFFFFF" d="M342.889,202.049c0,0.167-0.006,0.33-0.018,0.493c0.012,0.132,0.018,0.264,0.018,0.396v5.682
		c0,2.49-1.778,4.51-3.971,4.51h-6.187c-2.193,0-3.971-2.02-3.971-4.51v-5.682c0-0.132,0.006-0.264,0.018-0.396
		c-0.012-0.163-0.018-0.326-0.018-0.493v-0.128c0-4.025,2.871-7.285,6.416-7.285h1.298c3.544,0,6.416,3.26,6.416,7.285V202.049z"/>
	<path fill="#FFFFFF" d="M290.498,202.049c0,0.167-0.006,0.33-0.018,0.493c0.012,0.132,0.018,0.264,0.018,0.396v5.682
		c0,2.49-1.778,4.51-3.971,4.51h-6.188c-2.194,0-3.972-2.02-3.972-4.51v-5.682c0-0.132,0.006-0.264,0.018-0.396
		c-0.012-0.163-0.018-0.326-0.018-0.493v-0.128c0-4.025,2.872-7.285,6.416-7.285h1.299c3.543,0,6.416,3.26,6.416,7.285V202.049z"/>
	<path fill="#FFFFFF" d="M364.838,263.785c-0.092,0.129-0.187,0.252-0.287,0.37c-0.063,0.111-0.13,0.219-0.204,0.32l-3.144,4.423
		c-1.377,1.938-3.878,2.241-5.584,0.677l-4.815-4.412c-1.708-1.565-1.974-4.404-0.596-6.342l3.143-4.422
		c0.074-0.103,0.152-0.201,0.233-0.294c0.081-0.137,0.167-0.269,0.259-0.397l0.071-0.1c2.226-3.132,6.264-3.621,9.022-1.094
		l1.01,0.926c2.759,2.527,3.189,7.114,0.964,10.245L364.838,263.785z"/>
	<path fill="#FFFFFF" d="M267.43,219.511c0,0.144-0.005,0.284-0.016,0.424c0.01,0.113,0.016,0.227,0.016,0.341v4.892
		c0,2.144-1.531,3.882-3.419,3.882h-5.326c-1.888,0-3.419-1.738-3.419-3.882v-4.892c0-0.114,0.005-0.228,0.016-0.341
		c-0.011-0.141-0.016-0.281-0.016-0.424v-0.11c0-3.464,2.472-6.271,5.524-6.271h1.117c3.051,0,5.523,2.807,5.523,6.271V219.511z"/>
	<rect x="253.218" y="338.433" fill="#414042" width="91.894" height="67.298"/>
	<path fill="#414042" d="M350.697,350.156H248.378c-0.998,0-1.805-0.809-1.805-1.806v-34.991c0-0.997,0.808-1.806,1.805-1.806
		h102.319c0.998,0,1.806,0.809,1.806,1.806v34.991C352.502,349.348,351.694,350.156,350.697,350.156"/>
	<path fill="#FFE8AE" d="M380.618,344.973v3.553c0,0.589,0.03,1.165,0.093,1.731c0.092-1.664,0.274-3.299,0.532-4.901
		C381.028,345.238,380.822,345.11,380.618,344.973"/>
	<path fill="#FFE8AE" d="M396.074,268.296l19.479,27.042c0.606,0.838,1.321,1.515,2.105,2.025c0.146,0.099,0.292,0.19,0.446,0.273
		c-0.185,1.144-0.313,2.312-0.379,3.498c-0.046,0.704-0.066,1.416-0.066,2.137v7.175c0,17.262,12.325,31.258,27.528,31.258h37.242
		c15.203,0,27.528-13.996,27.528-31.258v-7.175c0-0.721-0.02-1.433-0.066-2.137c0.047-0.402,0.066-0.815,0.066-1.234v-77.858
		c0-4.807-3.433-8.705-7.666-8.705h-0.67c-4.234,0-7.667,3.897-7.667,8.705v18.85H489.4v-38.424c0-4.808-3.432-8.705-7.666-8.705
		h-4.359c-4.233,0-7.666,3.896-7.666,8.705v38.424h-5.746v-53.46c0-4.808-3.433-8.705-7.667-8.705h-4.355
		c-4.233,0-7.667,3.897-7.667,8.705v53.46h-6.927v-38.052c0-4.807-3.433-8.705-7.666-8.705h-4.355c-4.235,0-7.667,3.897-7.667,8.705
		v60.108l-6.347-8.808c-2.679-3.72-7.509-4.27-10.789-1.227l-3.374,3.134C393.875,259.09,393.39,264.573,396.074,268.296"/>
	<path fill="#FFFFFF" d="M447.007,190.547c0,0.166,0.006,0.33,0.019,0.493c-0.013,0.132-0.019,0.263-0.019,0.396v5.682
		c0,2.491,1.778,4.511,3.972,4.511h6.187c2.194,0,3.973-2.02,3.973-4.511v-5.682c0-0.132-0.006-0.264-0.019-0.396
		c0.013-0.163,0.019-0.327,0.019-0.493v-0.128c0-4.024-2.872-7.285-6.416-7.285h-1.299c-3.544,0-6.416,3.261-6.416,7.285V190.547z"
		/>
	<path fill="#FFFFFF" d="M420.286,205.318c0,0.167,0.005,0.33,0.019,0.493c-0.013,0.132-0.019,0.263-0.019,0.395v5.682
		c0,2.491,1.778,4.511,3.971,4.511h6.187c2.193,0,3.973-2.02,3.973-4.511v-5.682c0-0.132-0.007-0.263-0.019-0.395
		c0.012-0.163,0.019-0.327,0.019-0.493v-0.128c0-4.024-2.872-7.286-6.416-7.286h-1.298c-3.544,0-6.417,3.261-6.417,7.286V205.318z"
		/>
	<path fill="#FFFFFF" d="M472.677,205.318c0,0.167,0.006,0.33,0.018,0.493c-0.012,0.132-0.018,0.263-0.018,0.395v5.682
		c0,2.491,1.777,4.511,3.972,4.511h6.187c2.193,0,3.972-2.02,3.972-4.511v-5.682c0-0.132-0.006-0.263-0.019-0.395
		c0.013-0.163,0.019-0.327,0.019-0.493v-0.128c0-4.024-2.872-7.286-6.416-7.286h-1.299c-3.543,0-6.415,3.261-6.415,7.286V205.318z"
		/>
	<path fill="#FFFFFF" d="M398.337,267.055c0.091,0.129,0.187,0.252,0.286,0.371c0.063,0.111,0.131,0.219,0.204,0.321l3.144,4.421
		c1.377,1.939,3.877,2.242,5.584,0.678l4.816-4.412c1.707-1.564,1.972-4.404,0.595-6.342l-3.143-4.422
		c-0.073-0.103-0.151-0.2-0.232-0.294c-0.082-0.136-0.167-0.268-0.259-0.397l-0.071-0.1c-2.226-3.131-6.264-3.621-9.022-1.093
		l-1.01,0.926c-2.759,2.527-3.19,7.113-0.964,10.244L398.337,267.055z"/>
	<path fill="#FFFFFF" d="M495.745,222.781c0,0.143,0.005,0.284,0.015,0.424c-0.01,0.113-0.015,0.227-0.015,0.341v4.891
		c0,2.145,1.53,3.882,3.419,3.882h5.326c1.888,0,3.419-1.738,3.419-3.882v-4.891c0-0.114-0.006-0.228-0.016-0.341
		c0.01-0.141,0.016-0.281,0.016-0.424v-0.111c0-3.464-2.473-6.271-5.523-6.271h-1.118c-3.05,0-5.522,2.807-5.522,6.271V222.781z"/>
	<rect x="418.062" y="341.703" fill="#414042" width="91.895" height="64.047"/>
	<path fill="#414042" d="M412.478,353.425h102.319c0.997,0,1.805-0.808,1.805-1.805v-34.991c0-0.997-0.808-1.805-1.805-1.805
		H412.478c-0.998,0-1.806,0.808-1.806,1.805v34.991C410.672,352.617,411.48,353.425,412.478,353.425"/>
</g>
</svg>
