<?xml version="1.0" encoding="utf-8"?>
<!-- Generator: Adobe Illustrator 16.0.0, SVG Export Plug-In . SVG Version: 6.00 Build 0)  -->
<!DOCTYPE svg PUBLIC "-//W3C//DTD SVG 1.1//EN" "http://www.w3.org/Graphics/SVG/1.1/DTD/svg11.dtd">
<svg version="1.1" id="Layer_1" xmlns="http://www.w3.org/2000/svg" xmlns:xlink="http://www.w3.org/1999/xlink" x="0px" y="0px"
	 width="841.89px" height="595.28px" viewBox="0 0 841.89 595.28" enable-background="new 0 0 841.89 595.28" xml:space="preserve">
<g>
	<path display="none" fill="#8DC65D" d="M581.28,246.292v56.837c0,29.941-24.271,54.202-54.202,54.202H335.812
		c-29.933,0-54.202-24.261-54.202-54.202v-56.837H581.28z"/>
	<path display="none" fill="none" stroke="#414042" stroke-width="6" stroke-miterlimit="10" d="M581.28,246.292v56.837
		c0,29.941-24.271,54.202-54.202,54.202H335.812c-29.933,0-54.202-24.261-54.202-54.202v-56.837H581.28z"/>
	<path display="none" fill="#5DBAE1" d="M581.28,111.872v134.42H281.61v-134.42c0-29.942,24.269-54.202,54.202-54.202h191.267
		C557.01,57.67,581.28,81.93,581.28,111.872"/>
	<path display="none" fill="none" stroke="#414042" stroke-width="6" stroke-miterlimit="10" d="M581.28,111.872v134.42H281.61
		v-134.42c0-29.942,24.269-54.202,54.202-54.202h191.267C557.01,57.67,581.28,81.93,581.28,111.872z"/>
	<path fill="none" stroke="#808285" stroke-width="10" stroke-miterlimit="10" d="M513.628,341.093
		c-82.186-63.547-82.186-186.902-82.186-186.902s0,123.355-82.186,186.902"/>
	
		<line fill="none" stroke="#808285" stroke-width="8" stroke-miterlimit="10" x1="422.406" y1="218.964" x2="456.194" y2="265.292"/>
	
		<line fill="none" stroke="#808285" stroke-width="8" stroke-miterlimit="10" x1="456.194" y1="265.291" x2="384.684" y2="304.071"/>
	
		<line fill="none" stroke="#808285" stroke-width="10" stroke-miterlimit="10" x1="384.684" y1="304.071" x2="478.201" y2="304.071"/>
	
		<line fill="none" stroke="#808285" stroke-width="8" stroke-miterlimit="10" x1="456.194" y1="266.644" x2="406.691" y2="266.644"/>
	
		<line fill="none" stroke="#808285" stroke-width="6" stroke-miterlimit="10" x1="422.406" y1="218.964" x2="440.476" y2="218.964"/>
	
		<line fill="none" stroke="#808285" stroke-width="8" stroke-miterlimit="10" x1="478.201" y1="304.071" x2="406.691" y2="266.644"/>
	
		<line fill="none" stroke="#808285" stroke-width="8" stroke-miterlimit="10" x1="406.691" y1="266.644" x2="440.476" y2="218.964"/>
	<path fill="#808285" stroke="#808285" stroke-width="10" stroke-miterlimit="10" d="M443.28,154.19
		c0,6.538-5.3,11.837-11.838,11.837c-6.536,0-11.837-5.3-11.837-11.837s5.301-11.837,11.837-11.837
		C437.98,142.353,443.28,147.653,443.28,154.19"/>
	<circle fill="none" stroke="#808285" stroke-width="6" stroke-miterlimit="10" cx="431.443" cy="154.19" r="11.837"/>
	<circle fill="none" stroke="#FFFFFF" stroke-width="6" stroke-miterlimit="10" cx="431.443" cy="154.19" r="40.807"/>
	<circle fill="none" stroke="#FFFFFF" stroke-width="6" stroke-miterlimit="10" cx="431.443" cy="154.19" r="66.039"/>
	<circle fill="none" stroke="#FFFFFF" stroke-width="6" stroke-miterlimit="10" cx="431.442" cy="154.19" r="88.613"/>
</g>
<rect x="280" y="59.28" fill="none" width="300" height="300"/>
</svg>
