<?xml version="1.0" encoding="utf-8"?>
<!-- Generator: Adobe Illustrator 16.0.0, SVG Export Plug-In . SVG Version: 6.00 Build 0)  -->
<!DOCTYPE svg PUBLIC "-//W3C//DTD SVG 1.1//EN" "http://www.w3.org/Graphics/SVG/1.1/DTD/svg11.dtd">
<svg version="1.1" id="Layer_1" xmlns="http://www.w3.org/2000/svg" xmlns:xlink="http://www.w3.org/1999/xlink" x="0px" y="0px"
	 width="841.89px" height="595.28px" viewBox="0 0 841.89 595.28" enable-background="new 0 0 841.89 595.28" xml:space="preserve">
<g>
	<path fill="#009999" d="M269.364,105.667h190.273c30.024,0,54.363,24.34,54.363,54.364v190.273
		c0,30.024-24.339,54.363-54.363,54.363H269.364c-30.024,0-54.364-24.339-54.364-54.363V160.031
		C215,130.007,239.34,105.667,269.364,105.667"/>
	<path display="none" fill="none" stroke="#58595B" stroke-width="8" stroke-miterlimit="10" d="M269.364,105.667h190.273
		c30.024,0,54.363,24.34,54.363,54.364v190.273c0,30.024-24.339,54.363-54.363,54.363H269.364
		c-30.024,0-54.364-24.339-54.364-54.363V160.031C215,130.007,239.34,105.667,269.364,105.667z"/>
	<line fill="none" stroke="#58595B" stroke-width="8" stroke-miterlimit="10" x1="215" y1="190.233" x2="339.26" y2="190.233"/>
	<line fill="none" stroke="#58595B" stroke-width="8" stroke-miterlimit="10" x1="339.26" y1="138.95" x2="219.24" y2="138.95"/>
	<polyline fill="none" stroke="#58595B" stroke-width="8" stroke-linejoin="bevel" stroke-miterlimit="10" points="308.195,326.142 
		246.065,326.142 246.065,190.233 	"/>
	<line fill="none" stroke="#58595B" stroke-width="8" stroke-miterlimit="10" x1="215" y1="364.973" x2="309.489" y2="364.973"/>
	
		<line fill="none" stroke="#58595B" stroke-width="8" stroke-miterlimit="10" x1="432.145" y1="165.803" x2="463.291" y2="165.803"/>
	<polyline fill="none" stroke="#58595B" stroke-width="8" stroke-linejoin="bevel" stroke-miterlimit="10" points="463.291,165.803 
		463.291,216.12 330.2,216.12 330.2,268.471 385.858,268.471 	"/>
	<line fill="none" stroke="#58595B" stroke-width="8" stroke-miterlimit="10" x1="463.291" y1="268.472" x2="514" y2="268.472"/>
	<line fill="none" stroke="#58595B" stroke-width="8" stroke-miterlimit="10" x1="463.291" y1="165.803" x2="514" y2="165.803"/>
	<line fill="none" stroke="#58595B" stroke-width="8" stroke-miterlimit="10" x1="390.843" y1="346.852" x2="514" y2="346.852"/>
	<path fill="#FBB040" d="M391.885,346.852c-6.211,27.092-42.587,33.76-42.587,33.76h-51.458l0.009-0.009
		c0.009-0.008,0.027-0.017,0.037-0.033c0.043-0.033,0.106-0.091,0.195-0.176c0.097-0.082,0.212-0.19,0.346-0.324
		c0.088-0.083,0.195-0.183,0.301-0.291c0.062-0.059,0.125-0.127,0.195-0.192c0.142-0.133,0.293-0.283,0.443-0.442
		c0.16-0.158,0.329-0.332,0.505-0.517c0.143-0.149,0.292-0.308,0.444-0.467c4.551-4.852,13.796-16.512,14.08-31.309
		c-0.284-14.796-9.529-26.456-14.08-31.308c0.327,0.332,0.647,0.674,0.967,1.007c0.622,0.675,1.225,1.351,1.801,2.018
		c-0.567-0.667-1.163-1.343-1.801-2.018c-0.453-0.491-0.922-0.983-1.411-1.475c-0.168-0.175-0.336-0.342-0.505-0.516
		c-0.132-0.144-0.257-0.267-0.381-0.376c-0.027-0.026-0.053-0.041-0.063-0.068c-0.071-0.065-0.133-0.133-0.195-0.19
		c-0.435-0.434-0.736-0.7-0.842-0.793c-0.01-0.007-0.027-0.023-0.037-0.032l-0.009-0.009h51.458
		C349.298,313.092,385.674,319.761,391.885,346.852"/>
	<path fill="none" stroke="#FBB040" stroke-width="8" stroke-miterlimit="10" d="M391.885,346.852
		c-6.211,27.092-42.587,33.76-42.587,33.76h-51.458l0.009-0.009c0.009-0.008,0.027-0.017,0.037-0.033
		c0.043-0.033,0.106-0.091,0.195-0.176c0.097-0.082,0.212-0.19,0.346-0.324c0.088-0.083,0.195-0.183,0.301-0.291
		c0.062-0.059,0.125-0.127,0.195-0.192c0.142-0.133,0.293-0.283,0.443-0.442c0.16-0.158,0.329-0.332,0.505-0.517
		c0.143-0.149,0.292-0.308,0.444-0.467c4.551-4.852,13.796-16.512,14.08-31.309c-0.284-14.796-9.529-26.456-14.08-31.308
		c0.327,0.332,0.647,0.674,0.967,1.007c0.622,0.675,1.225,1.351,1.801,2.018c-0.567-0.667-1.163-1.343-1.801-2.018
		c-0.453-0.491-0.922-0.983-1.411-1.475c-0.168-0.175-0.336-0.342-0.505-0.516c-0.132-0.144-0.257-0.267-0.381-0.376
		c-0.027-0.026-0.053-0.041-0.063-0.068c-0.071-0.065-0.133-0.133-0.195-0.19c-0.435-0.434-0.736-0.7-0.842-0.793
		c-0.01-0.007-0.027-0.023-0.037-0.032l-0.009-0.009h51.458C349.298,313.092,385.674,319.761,391.885,346.852z"/>
	<polygon fill="#DA1C5C" points="461.996,268.472 384.563,303.898 384.563,233.044 	"/>
	<polygon fill="none" stroke="#DA1C5C" stroke-width="8" stroke-miterlimit="10" points="461.996,268.472 384.563,303.898 
		384.563,233.044 	"/>
	<path fill="#009444" d="M432.145,165.803c0,20.106-13.816,36.406-30.858,36.406h-61.717v-72.811h61.717
		C418.328,129.397,432.145,145.696,432.145,165.803"/>
	<path fill="none" stroke="#009444" stroke-width="8" stroke-miterlimit="10" d="M432.145,165.803
		c0,20.106-13.816,36.406-30.858,36.406h-61.717v-72.811h61.717C418.328,129.397,432.145,145.696,432.145,165.803z"/>
	<path fill="#FBB040" d="M423.394,346.852c0,7.149-5.794,12.943-12.943,12.943s-12.944-5.794-12.944-12.943
		c0-7.148,5.795-12.944,12.944-12.944S423.394,339.703,423.394,346.852"/>
	<circle fill="none" stroke="#FBB040" stroke-width="3" stroke-miterlimit="10" cx="410.45" cy="346.852" r="12.944"/>
	<path fill="#27AAE1" d="M290.937,139.752c0,5.957-4.83,10.786-10.786,10.786c-5.958,0-10.788-4.829-10.788-10.786
		c0-5.957,4.83-10.786,10.788-10.786C286.107,128.966,290.937,133.795,290.937,139.752"/>
	<path fill="#27AAE1" d="M308.626,190.233c0,5.957-4.829,10.786-10.786,10.786c-5.958,0-10.787-4.83-10.787-10.786
		c0-5.957,4.829-10.786,10.787-10.786C303.797,179.447,308.626,184.276,308.626,190.233"/>
	<path fill="#27AAE1" d="M499.432,347.715c0,5.956-4.829,10.786-10.785,10.786c-5.959,0-10.788-4.83-10.788-10.786
		s4.829-10.786,10.788-10.786C494.603,336.929,499.432,341.759,499.432,347.715"/>
	<path fill="#27AAE1" d="M474.077,195.982c0,5.956-4.829,10.786-10.786,10.786c-5.958,0-10.787-4.83-10.787-10.786
		c0-5.957,4.829-10.786,10.787-10.786C469.248,185.196,474.077,190.025,474.077,195.982"/>
</g>
<rect x="215" y="106.28" fill="none" width="300" height="300"/>
</svg>
