<?xml version="1.0" encoding="utf-8"?>
<!-- Generator: Adobe Illustrator 16.0.0, SVG Export Plug-In . SVG Version: 6.00 Build 0)  -->
<!DOCTYPE svg PUBLIC "-//W3C//DTD SVG 1.1//EN" "http://www.w3.org/Graphics/SVG/1.1/DTD/svg11.dtd">
<svg version="1.1" id="Layer_1" xmlns="http://www.w3.org/2000/svg" xmlns:xlink="http://www.w3.org/1999/xlink" x="0px" y="0px"
	 width="841.89px" height="595.28px" viewBox="0 0 841.89 595.28" enable-background="new 0 0 841.89 595.28" xml:space="preserve">
<g>
	<path fill="#FFFEE4" d="M559.082,432.885H303.984c-1.391,0-2.518-1.126-2.518-2.518V136.597c0-1.391,1.127-2.518,2.518-2.518
		h255.098c1.392,0,2.518,1.127,2.518,2.518v293.771C561.6,431.759,560.474,432.885,559.082,432.885"/>
	<path fill="#414042" d="M543.193,376.41H319.874c-1.391,0-2.518-1.127-2.518-2.518V150.573c0-1.39,1.126-2.518,2.518-2.518h223.319
		c1.391,0,2.517,1.128,2.517,2.518v223.319C545.71,375.283,544.584,376.41,543.193,376.41"/>
</g>
<rect x="281.533" y="133.481" fill="none" width="300" height="300"/>
</svg>
