<?xml version="1.0" encoding="utf-8"?>
<!-- Generator: Adobe Illustrator 16.0.0, SVG Export Plug-In . SVG Version: 6.00 Build 0)  -->
<!DOCTYPE svg PUBLIC "-//W3C//DTD SVG 1.1//EN" "http://www.w3.org/Graphics/SVG/1.1/DTD/svg11.dtd">
<svg version="1.1" id="Layer_1" xmlns="http://www.w3.org/2000/svg" xmlns:xlink="http://www.w3.org/1999/xlink" x="0px" y="0px"
	 width="841.891px" height="595.279px" viewBox="0 0 841.891 595.279" enable-background="new 0 0 841.891 595.279"
	 xml:space="preserve">
<g>
	<g>
		<path fill="#00A79D" d="M483.802,460.668H323.087c-38.063,0-68.92-30.858-68.92-68.92V231.033c0-38.063,30.857-68.92,68.92-68.92
			h160.715c38.062,0,68.92,30.857,68.92,68.92v160.715C552.723,429.81,521.865,460.668,483.802,460.668"/>
	</g>
	<g>
		<path fill="none" d="M483.802,460.668H323.087c-38.063,0-68.92-30.858-68.92-68.92V231.033c0-38.063,30.857-68.92,68.92-68.92
			h160.715c38.062,0,68.92,30.857,68.92,68.92v160.715C552.723,429.81,521.865,460.668,483.802,460.668z"/>
	</g>
	<g>
		<path fill="#A7A9AC" d="M457.484,273.072v-34.994c0-26.604-22.721-48.371-50.489-48.371h-7.1c-27.77,0-50.49,21.767-50.49,48.371
			v34.994 M349.405,273.072v23.959c0,26.604,22.72,48.37,50.49,48.37h7.1c27.769,0,50.489-21.766,50.489-48.37v-23.959
			 M438.031,285.632c0,14.134-12.07,25.697-26.823,25.697h-15.525c-14.752,0-26.823-11.563-26.823-25.697v-48.25
			c0-14.133,12.071-25.697,26.823-25.697h15.525c14.752,0,26.823,11.563,26.823,25.697V285.632z"/>
	</g>
	<g>
		<path fill="#F7941E" d="M415.832,433.074h-24.774c-40.368,0-73.396-33.028-73.396-73.396v-24.775
			c0-40.367,33.027-73.395,73.396-73.395h24.774c40.369,0,73.396,33.027,73.396,73.395v24.775
			C489.227,400.045,456.201,433.074,415.832,433.074"/>
	</g>
	<g>
		<path fill="#FBB040" d="M403.445,415.917L403.445,415.917c-37.745,0-68.627-30.882-68.627-68.628
			c0-37.743,30.882-68.625,68.627-68.625c37.744,0,68.627,30.881,68.627,68.625C472.072,385.035,441.189,415.917,403.445,415.917"/>
	</g>
	<g>
		<path fill="none" stroke="#F7861E" stroke-width="15" stroke-miterlimit="10" d="M403.445,415.917L403.445,415.917
			c-37.745,0-68.627-30.882-68.627-68.628c0-37.743,30.882-68.625,68.627-68.625c37.744,0,68.627,30.881,68.627,68.625
			C472.072,385.035,441.189,415.917,403.445,415.917z"/>
	</g>
	<g>
		<path fill="#414042" d="M422.659,339.052c0,7.064-4.071,13.203-10.065,16.352v30.021H395.21v-29.572
			c-6.487-2.974-10.979-9.379-10.979-16.8c0-10.267,8.601-18.592,19.214-18.592C414.059,320.459,422.659,328.785,422.659,339.052"/>
	</g>
</g>
<rect x="253.445" y="161.14" fill="none" width="300" height="300"/>
</svg>
