<?xml version="1.0" encoding="utf-8"?>
<!-- Generator: Adobe Illustrator 16.0.0, SVG Export Plug-In . SVG Version: 6.00 Build 0)  -->
<!DOCTYPE svg PUBLIC "-//W3C//DTD SVG 1.1//EN" "http://www.w3.org/Graphics/SVG/1.1/DTD/svg11.dtd">
<svg version="1.1" id="Layer_1" xmlns="http://www.w3.org/2000/svg" xmlns:xlink="http://www.w3.org/1999/xlink" x="0px" y="0px"
	 width="841.89px" height="595.28px" viewBox="0 0 841.89 595.28" enable-background="new 0 0 841.89 595.28" xml:space="preserve">
<g>
	<path fill="#604B13" d="M511.161,439.694H327.015c-4.551,0-8.275-3.725-8.275-8.275V190.718c0-4.552,3.725-8.276,8.275-8.276
		h184.146c4.552,0,8.277,3.725,8.277,8.276v240.701C519.438,435.97,515.713,439.694,511.161,439.694"/>
	<rect x="332.877" y="193.477" fill="#FFFEE4" width="172.422" height="234.493"/>
	
		<rect x="332.877" y="193.477" fill="none" stroke="#FEFFBB" stroke-width="5" stroke-miterlimit="10" width="172.422" height="234.493"/>
	<rect x="332.877" y="193.477" fill="#FFFEE4" width="172.422" height="226.217"/>
	
		<rect x="332.877" y="193.477" fill="none" stroke="#FEFFBB" stroke-width="5" stroke-miterlimit="10" width="172.422" height="226.217"/>
	<rect x="332.877" y="193.477" fill="#FFFEE4" width="172.422" height="220.01"/>
	
		<rect x="332.877" y="193.477" fill="none" stroke="#FEFFBB" stroke-width="5" stroke-miterlimit="10" width="172.422" height="220.01"/>
	<path fill="#6D6E71" d="M367.23,206.581c0-21.003,23.218-38.029,51.858-38.029c28.642,0,51.857,17.026,51.857,38.029"/>
	<path fill="none" stroke="#58595B" stroke-width="15" stroke-miterlimit="10" d="M367.23,206.581
		c0-21.003,23.218-38.029,51.858-38.029c28.642,0,51.857,17.026,51.857,38.029"/>
	
		<line fill="none" stroke="#58595B" stroke-width="15" stroke-miterlimit="10" x1="375.639" y1="231.409" x2="483.23" y2="231.409"/>
	
		<line fill="none" stroke="#58595B" stroke-width="15" stroke-miterlimit="10" x1="354.947" y1="252.101" x2="483.23" y2="252.101"/>
	
		<line fill="none" stroke="#58595B" stroke-width="15" stroke-miterlimit="10" x1="354.947" y1="272.102" x2="483.23" y2="272.102"/>
	
		<line fill="none" stroke="#58595B" stroke-width="15" stroke-miterlimit="10" x1="354.947" y1="292.102" x2="483.23" y2="292.102"/>
	
		<line fill="none" stroke="#58595B" stroke-width="15" stroke-miterlimit="10" x1="354.947" y1="312.103" x2="483.23" y2="312.103"/>
	
		<line fill="none" stroke="#58595B" stroke-width="15" stroke-miterlimit="10" x1="354.947" y1="332.104" x2="483.23" y2="332.104"/>
	
		<line fill="none" stroke="#58595B" stroke-width="15" stroke-miterlimit="10" x1="354.947" y1="352.104" x2="447.366" y2="352.104"/>
	<path fill="#58595B" d="M447.366,457.627c0,0,0.898-2.125,2.669-5.649c0.881-1.768,1.989-3.874,3.29-6.265
		c0.661-1.184,1.366-2.442,2.106-3.771c0.354-0.68,0.905-1.195,1.52-1.676c0.602-0.488,1.121-1.084,1.691-1.655
		c8.991-9.246,20.979-21.574,32.968-33.902c11.986-12.328,23.976-24.656,32.968-33.903c0.553-0.585,1.134-1.12,1.615-1.729
		c0.241-0.302,0.466-0.616,0.744-0.871c0.271-0.263,0.597-0.464,0.927-0.654c1.309-0.777,2.55-1.516,3.716-2.209
		c2.353-1.366,4.425-2.537,6.156-3.476c1.724-0.948,3.131-1.642,4.067-2.135c0.946-0.486,1.468-0.73,1.468-0.73
		s-0.229,0.527-0.688,1.487c-0.468,0.95-1.122,2.375-2.021,4.124c-0.891,1.759-2.002,3.864-3.304,6.252
		c-0.659,1.185-1.361,2.446-2.103,3.776c-0.184,0.335-0.375,0.666-0.629,0.945c-0.248,0.284-0.555,0.517-0.851,0.768
		c-0.594,0.498-1.113,1.096-1.684,1.664c-8.991,9.246-20.979,21.574-32.968,33.903c-11.986,12.328-23.974,24.656-32.968,33.902
		c-0.553,0.584-1.135,1.121-1.605,1.737c-0.463,0.626-0.963,1.191-1.633,1.563c-1.308,0.779-2.546,1.519-3.711,2.214
		c-2.353,1.366-4.429,2.533-6.169,3.462C449.465,456.671,447.366,457.627,447.366,457.627"/>
	
		<line fill="none" stroke="#58595B" stroke-width="15" stroke-miterlimit="10" x1="460.106" y1="444.523" x2="556.011" y2="345.897"/>
</g>
<rect x="287.375" y="161.089" fill="none" width="300" height="300"/>
</svg>
