<svg width="1366" height="642" xmlns="http://www.w3.org/2000/svg"><g><path d="M-120,-74L-130,339L-116,81Z" fill="#f0eefb" stroke="#f0eefb"/><path d="M-120,-74L-116,81L17,40Z" fill="#f9f3f9" stroke="#f9f3f9"/><path d="M-120,-74L17,40L19,-103Z" fill="#f8f2f8" stroke="#f8f2f8"/><path d="M19,-103L17,40L272,-98Z" fill="#eeedf5" stroke="#eeedf5"/><path d="M19,-103L272,-98L856,-90Z" fill="#d8e1ef" stroke="#d8e1ef"/><path d="M272,-98L17,40L242,121Z" fill="#e5e8f4" stroke="#e5e8f4"/><path d="M272,-98L242,121L343,31Z" fill="#dde4f1" stroke="#dde4f1"/><path d="M272,-98L343,31L362,-79Z" fill="#dde4f0" stroke="#dde4f0"/><path d="M272,-98L362,-79L615,-89Z" fill="#d6e0ee" stroke="#d6e0ee"/><path d="M272,-98L615,-89L856,-90Z" fill="#c0d8e4" stroke="#c0d8e4"/><path d="M362,-79L343,31L467,105Z" fill="#d5dfef" stroke="#d5dfef"/><path d="M362,-79L467,105L582,-55Z" fill="#d0deec" stroke="#d0deec"/><path d="M362,-79L582,-55L615,-89Z" fill="#c9dbe9" stroke="#c9dbe9"/><path d="M582,-55L467,105L552,176Z" fill="#bdd5e8" stroke="#bdd5e8"/><path d="M582,-55L552,176L707,44Z" fill="#b3d2e2" stroke="#b3d2e2"/><path d="M582,-55L707,44L615,-89Z" fill="#b8d5e0" stroke="#b8d5e0"/><path d="M615,-89L707,44L789,17Z" fill="#add2db" stroke="#add2db"/><path d="M615,-89L789,17L856,-90Z" fill="#a6d0d8" stroke="#a6d0d8"/><path d="M856,-90L789,17L944,-54Z" fill="#95cad0" stroke="#95cad0"/><path d="M856,-90L944,-54L1216,-56Z" fill="#80c3c5" stroke="#80c3c5"/><path d="M856,-90L1216,-56L1566,-52Z" fill="#80b9b6" stroke="#80b9b6"/><path d="M944,-54L789,17L1033,119Z" fill="#89c5cb" stroke="#89c5cb"/><path d="M944,-54L1033,119L1073,33Z" fill="#7bc0c5" stroke="#7bc0c5"/><path d="M944,-54L1073,33L1099,-35Z" fill="#80c1c3" stroke="#80c1c3"/><path d="M944,-54L1099,-35L1216,-56Z" fill="#80bfc0" stroke="#80bfc0"/><path d="M1099,-35L1073,33L1227,94Z" fill="#7cbbbc" stroke="#7cbbbc"/><path d="M1099,-35L1227,94L1216,-56Z" fill="#80bab9" stroke="#80bab9"/><path d="M1216,-56L1227,94L1371,30Z" fill="#7db4b2" stroke="#7db4b2"/><path d="M1216,-56L1371,30L1414,-46Z" fill="#80b3ae" stroke="#80b3ae"/><path d="M1216,-56L1414,-46L1566,-52Z" fill="#80b0a9" stroke="#80b0a9"/><path d="M1414,-46L1371,30L1552,62Z" fill="#7eaca5" stroke="#7eaca5"/><path d="M1414,-46L1552,62L1566,-52Z" fill="#80aaa1" stroke="#80aaa1"/><path d="M1566,-52L1552,62L1556,196Z" fill="#77a39d" stroke="#77a39d"/><path d="M1566,-52L1556,196L1578,344Z" fill="#6a9c9d" stroke="#6a9c9d"/><path d="M1566,-52L1578,344L1592,576Z" fill="#478e8f" stroke="#478e8f"/><path d="M-116,81L-130,339L-82,245Z" fill="#dfe5f9" stroke="#dfe5f9"/><path d="M-116,81L-82,245L44,228Z" fill="#e1e6f9" stroke="#e1e6f9"/><path d="M-116,81L44,228L17,40Z" fill="#e8e9f8" stroke="#e8e9f8"/><path d="M17,40L44,228L242,121Z" fill="#dce4f5" stroke="#dce4f5"/><path d="M242,121L44,228L179,285Z" fill="#cedbf4" stroke="#cedbf4"/><path d="M242,121L179,285L408,175Z" fill="#c7d8f1" stroke="#c7d8f1"/><path d="M242,121L408,175L343,31Z" fill="#cedcf0" stroke="#cedcf0"/><path d="M343,31L408,175L467,105Z" fill="#c9d9ee" stroke="#c9d9ee"/><path d="M467,105L408,175L552,176Z" fill="#bcd3ec" stroke="#bcd3ec"/><path d="M707,44L552,176L631,185Z" fill="#a6cce1" stroke="#a6cce1"/><path d="M707,44L631,185L865,266Z" fill="#92c5d9" stroke="#92c5d9"/><path d="M707,44L865,266L789,17Z" fill="#92c6d5" stroke="#92c6d5"/><path d="M789,17L865,266L1033,119Z" fill="#7ebfcd" stroke="#7ebfcd"/><path d="M1033,119L865,266L1005,269Z" fill="#67b5c8" stroke="#67b5c8"/><path d="M1033,119L1005,269L1107,269Z" fill="#61b1c1" stroke="#61b1c1"/><path d="M1033,119L1107,269L1236,211Z" fill="#65afbd" stroke="#65afbd"/><path d="M1033,119L1236,211L1227,94Z" fill="#6db1ba" stroke="#6db1ba"/><path d="M1033,119L1227,94L1073,33Z" fill="#75b8be" stroke="#75b8be"/><path d="M1227,94L1236,211L1394,236Z" fill="#68a9b1" stroke="#68a9b1"/><path d="M1227,94L1394,236L1371,30Z" fill="#70aaae" stroke="#70aaae"/><path d="M1371,30L1394,236L1552,62Z" fill="#71a6a6" stroke="#71a6a6"/><path d="M1552,62L1394,236L1556,196Z" fill="#6a9fa1" stroke="#6a9fa1"/><path d="M-82,245L-130,339L99,349Z" fill="#b7d7e8" stroke="#b7d7e8"/><path d="M-82,245L99,349L44,228Z" fill="#c1d9ed" stroke="#c1d9ed"/><path d="M44,228L99,349L179,285Z" fill="#b5d4e9" stroke="#b5d4e9"/><path d="M179,285L99,349L281,416Z" fill="#97c9dc" stroke="#97c9dc"/><path d="M179,285L281,416L423,331Z" fill="#91c6db" stroke="#91c6db"/><path d="M179,285L423,331L408,175Z" fill="#accee7" stroke="#accee7"/><path d="M408,175L423,331L552,176Z" fill="#b0cdea" stroke="#b0cdea"/><path d="M552,176L423,331L485,381Z" fill="#93c4dd" stroke="#93c4dd"/><path d="M552,176L485,381L631,185Z" fill="#9ac6e0" stroke="#9ac6e0"/><path d="M631,185L485,381L720,365Z" fill="#7abcd1" stroke="#7abcd1"/><path d="M631,185L720,365L768,334Z" fill="#72b9cd" stroke="#72b9cd"/><path d="M631,185L768,334L865,266Z" fill="#77bad0" stroke="#77bad0"/><path d="M865,266L768,334L860,468Z" fill="#47abba" stroke="#47abba"/><path d="M865,266L860,468L977,368Z" fill="#38a6b3" stroke="#38a6b3"/><path d="M865,266L977,368L1005,269Z" fill="#4aacba" stroke="#4aacba"/><path d="M1005,269L977,368L1107,269Z" fill="#42a8b5" stroke="#42a8b5"/><path d="M1107,269L977,368L1125,409Z" fill="#30a0aa" stroke="#30a0aa"/><path d="M1107,269L1125,409L1270,322Z" fill="#369da5" stroke="#369da5"/><path d="M1107,269L1270,322L1236,211Z" fill="#4fa4ae" stroke="#4fa4ae"/><path d="M1236,211L1270,322L1394,236Z" fill="#53a1a9" stroke="#53a1a9"/><path d="M1394,236L1270,322L1389,369Z" fill="#3f979c" stroke="#3f979c"/><path d="M1394,236L1389,369L1578,344Z" fill="#3c9193" stroke="#3c9193"/><path d="M1394,236L1578,344L1556,196Z" fill="#529699" stroke="#529699"/><path d="M-130,339L-133,799L-63,549Z" fill="#7fbbbf" stroke="#7fbbbf"/><path d="M-130,339L-63,549L99,349Z" fill="#90cbd6" stroke="#90cbd6"/><path d="M99,349L-63,549L98,506Z" fill="#75c0cb" stroke="#75c0cb"/><path d="M99,349L98,506L182,482Z" fill="#78c0cd" stroke="#78c0cd"/><path d="M99,349L182,482L281,416Z" fill="#7ec1d1" stroke="#7ec1d1"/><path d="M281,416L182,482L408,469Z" fill="#67b8c8" stroke="#67b8c8"/><path d="M281,416L408,469L423,331Z" fill="#74bbcf" stroke="#74bbcf"/><path d="M423,331L408,469L485,381Z" fill="#73bacf" stroke="#73bacf"/><path d="M485,381L408,469L475,530Z" fill="#59b1c3" stroke="#59b1c3"/><path d="M485,381L475,530L726,552Z" fill="#43a8b7" stroke="#43a8b7"/><path d="M485,381L726,552L720,365Z" fill="#46abba" stroke="#46abba"/><path d="M720,365L726,552L860,468Z" fill="#28a1ad" stroke="#28a1ad"/><path d="M720,365L860,468L768,334Z" fill="#42aab8" stroke="#42aab8"/><path d="M977,368L860,468L962,549Z" fill="#0f99a1" stroke="#0f99a1"/><path d="M977,368L962,549L1125,409Z" fill="#0c979d" stroke="#0c979d"/><path d="M1125,409L962,549L1146,530Z" fill="#008d90" stroke="#008d90"/><path d="M1125,409L1146,530L1275,565Z" fill="#008888" stroke="#008888"/><path d="M1125,409L1275,565L1270,322Z" fill="#108e91" stroke="#108e91"/><path d="M1270,322L1275,565L1389,369Z" fill="#158b8c" stroke="#158b8c"/><path d="M1389,369L1275,565L1435,465Z" fill="#038380" stroke="#038380"/><path d="M1389,369L1435,465L1578,344Z" fill="#1f8785" stroke="#1f8785"/><path d="M1578,344L1435,465L1592,576Z" fill="#057b75" stroke="#057b75"/><path d="M-63,549L-133,799L-73,709Z" fill="#7daba9" stroke="#7daba9"/><path d="M-63,549L-73,709L94,678Z" fill="#77adaf" stroke="#77adaf"/><path d="M-63,549L94,678L98,506Z" fill="#73b3b9" stroke="#73b3b9"/><path d="M98,506L94,678L182,482Z" fill="#6db2bb" stroke="#6db2bb"/><path d="M182,482L94,678L232,706Z" fill="#69a8ae" stroke="#69a8ae"/><path d="M182,482L232,706L428,632Z" fill="#61a6ae" stroke="#61a6ae"/><path d="M182,482L428,632L408,469Z" fill="#5cadba" stroke="#5cadba"/><path d="M408,469L428,632L475,530Z" fill="#55a7b6" stroke="#55a7b6"/><path d="M475,530L428,632L513,667Z" fill="#519da9" stroke="#519da9"/><path d="M475,530L513,667L635,673Z" fill="#4699a1" stroke="#4699a1"/><path d="M475,530L635,673L726,552Z" fill="#3c9aa2" stroke="#3c9aa2"/><path d="M726,552L635,673L805,662Z" fill="#2b8f93" stroke="#2b8f93"/><path d="M726,552L805,662L860,468Z" fill="#1f9399" stroke="#1f9399"/><path d="M860,468L805,662L962,549Z" fill="#148f94" stroke="#148f94"/><path d="M962,549L805,662L945,724Z" fill="#0f8483" stroke="#0f8483"/><path d="M962,549L945,724L1173,730Z" fill="#007b76" stroke="#007b76"/><path d="M962,549L1173,730L1146,530Z" fill="#00807c" stroke="#00807c"/><path d="M1146,530L1173,730L1227,703Z" fill="#00756e" stroke="#00756e"/><path d="M1146,530L1227,703L1275,565Z" fill="#007a75" stroke="#007a75"/><path d="M1275,565L1227,703L1445,731Z" fill="#006d62" stroke="#006d62"/><path d="M1275,565L1445,731L1435,465Z" fill="#00736a" stroke="#00736a"/><path d="M1435,465L1445,731L1538,705Z" fill="#00695c" stroke="#00695c"/><path d="M1435,465L1538,705L1592,576Z" fill="#006d61" stroke="#006d61"/><path d="M1592,576L1538,705L1602,823Z" fill="#005b49" stroke="#005b49"/><path d="M-73,709L-133,799L58,783Z" fill="#7aa09b" stroke="#7aa09b"/><path d="M-73,709L58,783L94,678Z" fill="#74a2a0" stroke="#74a2a0"/><path d="M94,678L58,783L232,706Z" fill="#6c9e9e" stroke="#6c9e9e"/><path d="M232,706L58,783L238,876Z" fill="#699492" stroke="#699492"/><path d="M232,706L238,876L320,863Z" fill="#628d8b" stroke="#628d8b"/><path d="M232,706L320,863L428,632Z" fill="#5d9498" stroke="#5d9498"/><path d="M428,632L320,863L478,877Z" fill="#578a8c" stroke="#578a8c"/><path d="M428,632L478,877L513,667Z" fill="#518f95" stroke="#518f95"/><path d="M513,667L478,877L672,822Z" fill="#448384" stroke="#448384"/><path d="M513,667L672,822L635,673Z" fill="#3c898c" stroke="#3c898c"/><path d="M635,673L672,822L805,662Z" fill="#2e8485" stroke="#2e8485"/><path d="M805,662L672,822L872,817Z" fill="#227b77" stroke="#227b77"/><path d="M805,662L872,817L945,724Z" fill="#147a76" stroke="#147a76"/><path d="M945,724L872,817L975,847Z" fill="#0b7067" stroke="#0b7067"/><path d="M945,724L975,847L1078,877Z" fill="#016a5f" stroke="#016a5f"/><path d="M945,724L1078,877L1173,730Z" fill="#006c61" stroke="#006c61"/><path d="M1173,730L1078,877L1253,852Z" fill="#006152" stroke="#006152"/><path d="M1173,730L1253,852L1227,703Z" fill="#006659" stroke="#006659"/><path d="M1227,703L1253,852L1445,731Z" fill="#006152" stroke="#006152"/><path d="M1445,731L1253,852L1449,864Z" fill="#005744" stroke="#005744"/><path d="M1445,731L1449,864L1602,823Z" fill="#00523d" stroke="#00523d"/><path d="M1445,731L1602,823L1538,705Z" fill="#005843" stroke="#005843"/><path d="M-133,799L238,876L58,783Z" fill="#72958f" stroke="#72958f"/><path d="M238,876L478,877L320,863Z" fill="#5c8280" stroke="#5c8280"/><path d="M478,877L1078,877L975,847Z" fill="#186b62" stroke="#186b62"/><path d="M478,877L975,847L672,822Z" fill="#2d746f" stroke="#2d746f"/><path d="M672,822L975,847L872,817Z" fill="#197068" stroke="#197068"/><path d="M1078,877L1449,864L1253,852Z" fill="#005744" stroke="#005744"/></g></svg>