<?xml version="1.0" encoding="UTF-8" ?>
<!DOCTYPE svg PUBLIC "-//W3C//DTD SVG 1.1//EN" "http://www.w3.org/Graphics/SVG/1.1/DTD/svg11.dtd">
<svg width="185pt" height="209pt" viewBox="0 0 185 209" version="1.1" xmlns="http://www.w3.org/2000/svg">
<path fill="#ffffff" d=" M 0.00 0.00 L 185.00 0.00 L 185.00 209.00 L 0.00 209.00 L 0.00 108.53 C 1.59 109.04 3.18 109.55 4.76 110.08 C 3.32 111.57 1.83 113.00 0.33 114.43 C 1.91 115.45 4.58 115.47 5.34 117.31 C 4.47 118.71 3.48 120.03 2.66 121.46 C 4.21 122.23 6.31 122.15 7.51 123.53 C 6.70 125.29 5.56 126.86 4.47 128.44 C 6.46 128.60 8.46 128.75 10.45 128.92 C 9.70 130.71 7.63 132.24 7.83 134.27 C 9.63 135.04 11.58 135.41 13.51 135.71 C 12.46 137.19 11.40 138.68 10.45 140.23 C 12.41 140.60 14.40 140.78 16.35 141.18 C 15.82 143.04 15.11 144.84 14.49 146.67 C 16.41 146.60 18.33 146.46 20.25 146.47 C 19.75 148.15 19.12 149.79 18.62 151.48 C 20.23 152.74 22.42 151.61 24.27 151.83 C 24.03 153.81 23.60 155.77 23.26 157.74 C 24.91 157.27 26.57 156.85 28.25 156.47 C 29.25 158.20 28.03 160.41 28.51 162.34 C 30.24 161.99 31.94 161.50 33.67 161.20 C 33.72 163.09 33.32 165.02 33.76 166.89 C 35.70 166.43 37.58 165.76 39.49 165.19 C 39.16 167.12 38.84 169.06 38.51 171.00 C 40.54 170.40 42.52 169.71 44.53 169.07 C 44.73 171.09 44.93 173.11 45.16 175.13 C 46.85 174.31 48.33 172.51 50.36 172.69 C 51.06 174.21 49.86 177.11 51.87 177.71 C 53.33 176.96 54.65 175.97 56.07 175.16 C 56.70 177.07 57.01 179.08 57.93 180.89 C 59.32 179.81 60.63 178.62 61.94 177.45 C 62.83 179.42 63.67 181.41 64.67 183.32 C 65.88 182.01 67.08 180.69 68.39 179.48 C 69.67 181.06 69.62 183.78 71.65 184.59 C 72.84 183.37 73.93 182.04 75.03 180.72 C 75.70 182.31 76.41 183.88 77.16 185.43 C 77.48 185.54 78.11 185.75 78.42 185.86 C 79.48 184.55 80.44 183.11 81.86 182.16 C 82.98 183.59 83.35 185.76 85.02 186.68 C 86.16 185.30 87.17 183.82 88.36 182.48 C 89.31 183.78 90.12 185.19 90.97 186.56 C 91.32 186.62 92.00 186.75 92.34 186.82 C 93.00 185.56 93.65 184.29 94.42 183.09 C 96.39 183.05 96.89 185.65 98.25 186.71 C 100.22 185.90 100.30 183.40 101.29 181.79 C 102.44 183.09 103.58 184.41 104.73 185.73 C 105.13 185.72 105.94 185.70 106.35 185.68 C 106.82 184.03 107.30 182.38 107.79 180.74 C 109.20 182.04 110.53 183.43 112.00 184.67 C 113.98 183.94 113.40 181.20 114.15 179.57 C 115.83 180.69 117.44 181.94 119.23 182.89 C 119.79 181.33 120.22 179.73 120.80 178.18 C 122.75 177.72 123.95 180.82 125.99 180.27 C 126.37 178.68 126.59 177.06 127.00 175.48 C 128.76 175.40 129.95 177.12 131.39 177.92 C 131.71 177.71 132.34 177.29 132.65 177.08 C 132.64 175.55 132.66 174.02 132.71 172.49 C 134.61 173.15 136.43 174.13 138.44 174.38 C 138.61 172.63 138.63 170.87 138.85 169.13 C 140.75 169.57 142.61 171.10 144.63 170.40 C 144.46 168.70 144.25 167.00 143.99 165.31 C 145.91 165.70 147.84 166.90 149.83 166.40 C 149.80 164.68 149.53 162.96 149.69 161.24 C 151.53 161.49 153.34 161.93 155.18 162.19 C 154.98 160.27 154.65 158.37 154.41 156.45 C 156.28 156.82 158.15 157.25 160.06 157.41 C 159.75 155.48 159.27 153.59 158.95 151.67 C 160.89 151.85 162.82 152.14 164.77 152.35 C 164.18 150.43 163.50 148.54 163.08 146.59 C 164.75 146.48 166.43 146.61 168.11 146.67 C 168.31 146.37 168.70 145.77 168.90 145.47 C 168.09 144.19 167.28 142.91 166.56 141.58 C 168.55 140.96 170.68 140.80 172.64 140.05 C 171.79 138.55 170.80 137.13 169.84 135.70 C 171.79 135.37 173.78 135.04 175.59 134.19 C 175.65 132.57 173.94 131.53 173.19 130.23 C 173.35 129.90 173.65 129.24 173.80 128.91 C 175.22 128.79 176.64 128.63 178.06 128.43 C 178.73 126.44 176.39 125.17 175.67 123.54 C 177.28 122.37 179.24 121.86 181.05 121.08 C 179.84 119.66 178.53 118.33 177.28 116.95 C 179.18 116.13 181.19 115.46 182.90 114.25 C 181.76 113.21 180.55 112.24 179.35 111.28 C 179.36 110.88 179.39 110.09 179.40 109.69 C 181.11 109.13 182.82 108.58 184.54 108.03 C 183.09 106.85 181.67 105.66 180.25 104.44 C 180.34 104.13 180.51 103.51 180.59 103.20 C 182.07 102.34 183.52 101.43 184.99 100.53 C 183.44 99.42 181.85 98.39 180.34 97.24 C 181.85 96.07 183.46 95.04 184.99 93.88 C 183.50 92.59 181.90 91.44 180.34 90.26 C 181.90 89.17 183.50 88.12 184.99 86.93 C 183.32 85.81 181.52 84.91 179.75 83.97 C 181.30 82.72 182.82 81.45 184.31 80.13 C 182.57 79.17 180.75 78.31 179.11 77.18 C 180.27 75.76 181.58 74.49 182.73 73.08 C 180.97 72.19 179.06 71.58 177.48 70.38 C 178.51 69.33 179.61 68.36 180.71 67.38 C 180.65 66.98 180.54 66.16 180.48 65.76 C 178.74 65.35 177.01 64.93 175.28 64.49 C 176.04 62.84 179.08 61.54 178.07 59.52 C 176.50 58.88 174.82 58.59 173.19 58.19 C 174.05 56.70 175.07 55.30 175.87 53.77 C 174.75 52.22 172.55 53.01 170.93 52.67 C 170.78 52.40 170.47 51.86 170.32 51.59 C 170.98 50.08 173.25 48.68 172.23 46.88 C 170.46 46.73 168.69 46.75 166.92 46.70 C 167.59 44.73 168.32 42.79 169.01 40.82 C 167.20 41.10 165.39 41.32 163.57 41.48 C 163.34 39.46 164.46 37.63 164.89 35.71 C 163.02 35.34 160.51 36.62 159.10 35.15 C 159.49 33.47 160.08 31.84 160.59 30.19 C 158.55 30.52 156.52 30.89 154.48 31.22 C 154.81 29.32 155.22 27.43 155.50 25.52 C 153.52 25.62 151.60 26.20 149.64 26.45 C 149.39 24.64 150.69 22.40 149.38 20.87 C 147.82 21.34 146.31 21.95 144.75 22.44 C 144.43 20.57 144.48 18.65 144.31 16.76 C 142.40 17.32 140.56 18.05 138.70 18.71 C 138.69 16.79 138.74 14.87 138.60 12.95 C 136.73 13.43 135.13 14.53 133.51 15.50 C 132.77 13.69 133.48 10.66 131.44 9.78 C 130.02 10.69 128.71 11.76 127.39 12.79 C 127.04 10.94 126.64 9.10 126.21 7.28 C 125.85 7.29 125.12 7.32 124.76 7.33 C 123.50 8.23 122.46 9.94 120.70 9.67 C 120.41 8.33 120.17 6.99 119.98 5.64 C 119.53 5.37 118.62 4.82 118.17 4.55 C 117.37 5.67 116.57 6.78 115.78 7.90 C 115.28 7.72 114.29 7.36 113.80 7.19 C 113.67 5.89 113.54 4.58 113.41 3.28 C 112.95 3.26 112.02 3.23 111.55 3.21 C 110.61 4.35 109.67 5.49 108.66 6.57 C 107.39 4.91 106.41 3.04 105.33 1.26 C 103.99 2.63 103.25 4.99 101.15 5.33 C 100.49 3.98 99.97 2.57 99.42 1.18 C 98.96 1.19 98.03 1.22 97.56 1.23 C 96.87 2.67 96.17 4.11 95.47 5.54 C 94.23 3.74 93.01 1.92 91.72 0.16 C 90.81 1.61 89.93 3.07 89.08 4.55 C 88.65 4.61 87.79 4.74 87.36 4.80 C 86.81 3.59 86.26 2.38 85.71 1.17 C 85.25 1.19 84.34 1.25 83.88 1.28 C 83.11 2.70 82.79 4.53 81.34 5.45 C 80.09 4.16 78.99 2.74 77.76 1.44 C 76.76 3.02 75.98 4.73 75.02 6.33 C 73.48 5.21 72.11 3.84 70.43 2.92 C 69.93 4.42 69.55 5.96 69.16 7.49 C 68.77 7.53 67.99 7.62 67.61 7.66 C 66.69 6.68 65.80 5.67 64.80 4.77 C 62.60 4.91 63.37 7.65 62.80 9.12 C 62.48 9.28 61.82 9.61 61.50 9.77 C 60.02 8.76 58.55 7.72 57.10 6.66 C 56.94 8.44 56.72 10.20 56.44 11.96 C 54.36 12.14 52.76 10.40 50.92 9.69 C 50.66 11.33 50.55 13.00 50.23 14.64 C 48.40 15.72 46.71 12.78 44.74 13.51 C 44.52 15.18 44.49 16.87 44.20 18.53 C 42.41 18.05 40.70 17.33 38.95 16.73 C 38.76 18.65 38.77 20.59 38.50 22.51 C 36.85 21.91 35.24 21.22 33.59 20.63 C 33.40 22.56 33.60 24.51 33.25 26.42 C 31.36 26.21 29.49 25.81 27.61 25.53 C 28.00 27.44 28.43 29.33 28.87 31.23 C 26.78 30.91 24.69 30.56 22.60 30.22 C 23.24 32.20 23.89 34.18 24.52 36.17 C 22.60 35.88 20.68 35.52 18.73 35.39 C 18.83 37.34 19.56 39.19 19.92 41.09 C 18.03 41.40 15.91 40.81 14.18 41.82 C 14.92 43.42 15.80 44.95 16.64 46.50 C 14.65 46.67 12.64 46.75 10.66 47.00 C 11.34 48.78 12.25 50.46 12.95 52.23 C 11.01 52.81 9.00 53.14 7.03 53.59 C 8.16 55.19 9.30 56.78 10.40 58.39 C 8.39 58.80 6.38 59.19 4.37 59.62 C 5.43 61.32 6.61 62.93 7.81 64.53 C 5.86 65.20 3.89 65.84 1.91 66.45 C 3.17 67.70 4.46 68.91 5.62 70.25 C 4.89 72.26 2.19 71.83 0.58 72.67 C 1.78 74.31 3.10 75.87 4.15 77.62 C 2.79 78.19 1.39 78.65 0.00 79.13 L 0.00 0.00 Z" />
<path fill="#930684" d=" M 83.88 1.28 C 84.34 1.25 85.25 1.19 85.71 1.17 C 86.26 2.38 86.81 3.59 87.36 4.80 C 87.79 4.74 88.65 4.61 89.08 4.55 C 89.93 3.07 90.81 1.61 91.72 0.16 C 93.01 1.92 94.23 3.74 95.47 5.54 C 96.17 4.11 96.87 2.67 97.56 1.23 C 98.03 1.22 98.96 1.19 99.42 1.18 C 99.97 2.57 100.49 3.98 101.15 5.33 C 103.25 4.99 103.99 2.63 105.33 1.26 C 106.41 3.04 107.39 4.91 108.66 6.57 C 109.67 5.49 110.61 4.35 111.55 3.21 C 112.02 3.23 112.95 3.26 113.41 3.28 C 113.54 4.58 113.67 5.89 113.80 7.19 C 114.29 7.36 115.28 7.72 115.78 7.90 C 116.57 6.78 117.37 5.67 118.17 4.55 C 118.62 4.82 119.53 5.37 119.98 5.64 C 120.17 6.99 120.41 8.33 120.70 9.67 C 122.46 9.94 123.50 8.23 124.76 7.33 C 125.12 7.32 125.85 7.29 126.21 7.28 C 126.64 9.10 127.04 10.94 127.39 12.79 C 128.71 11.76 130.02 10.69 131.44 9.78 C 133.48 10.66 132.77 13.69 133.51 15.50 C 135.13 14.53 136.73 13.43 138.60 12.95 C 138.74 14.87 138.69 16.79 138.70 18.71 C 140.56 18.05 142.40 17.32 144.31 16.76 C 144.48 18.65 144.43 20.57 144.75 22.44 C 146.31 21.95 147.82 21.34 149.38 20.87 C 150.69 22.40 149.39 24.64 149.64 26.45 C 151.60 26.20 153.52 25.62 155.50 25.52 C 155.22 27.43 154.81 29.32 154.48 31.22 C 156.52 30.89 158.55 30.52 160.59 30.19 C 160.08 31.84 159.49 33.47 159.10 35.15 C 160.51 36.62 163.02 35.34 164.89 35.71 C 164.46 37.63 163.34 39.46 163.57 41.48 C 165.39 41.32 167.20 41.10 169.01 40.82 C 168.32 42.79 167.59 44.73 166.92 46.70 C 168.69 46.75 170.46 46.73 172.23 46.88 C 173.25 48.68 170.98 50.08 170.32 51.59 C 170.47 51.86 170.78 52.40 170.93 52.67 C 172.55 53.01 174.75 52.22 175.87 53.77 C 175.07 55.30 174.05 56.70 173.19 58.19 C 174.82 58.59 176.50 58.88 178.07 59.52 C 179.08 61.54 176.04 62.84 175.28 64.49 C 177.01 64.93 178.74 65.35 180.48 65.76 C 180.54 66.16 180.65 66.98 180.71 67.38 C 179.61 68.36 178.51 69.33 177.48 70.38 C 179.06 71.58 180.97 72.19 182.73 73.08 C 181.58 74.49 180.27 75.76 179.11 77.18 C 180.75 78.31 182.57 79.17 184.31 80.13 C 182.82 81.45 181.30 82.72 179.75 83.97 C 181.52 84.91 183.32 85.81 184.99 86.93 C 183.50 88.12 181.90 89.17 180.34 90.26 C 181.90 91.44 183.50 92.59 184.99 93.88 C 183.46 95.04 181.85 96.07 180.34 97.24 C 181.85 98.39 183.44 99.42 184.99 100.53 C 183.52 101.43 182.07 102.34 180.59 103.20 C 180.51 103.51 180.34 104.13 180.25 104.44 C 181.67 105.66 183.09 106.85 184.54 108.03 C 182.82 108.58 181.11 109.13 179.40 109.69 C 179.39 110.09 179.36 110.88 179.35 111.28 C 180.55 112.24 181.76 113.21 182.90 114.25 C 181.19 115.46 179.18 116.13 177.28 116.95 C 178.53 118.33 179.84 119.66 181.05 121.08 C 179.24 121.86 177.28 122.37 175.67 123.54 C 176.39 125.17 178.73 126.44 178.06 128.43 C 176.64 128.63 175.22 128.79 173.80 128.91 C 173.65 129.24 173.35 129.90 173.19 130.23 C 173.94 131.53 175.65 132.57 175.59 134.19 C 173.78 135.04 171.79 135.37 169.84 135.70 C 170.80 137.13 171.79 138.55 172.64 140.05 C 170.68 140.80 168.55 140.96 166.56 141.58 C 167.28 142.91 168.09 144.19 168.90 145.47 C 168.70 145.77 168.31 146.37 168.11 146.67 C 166.43 146.61 164.75 146.48 163.08 146.59 C 163.50 148.54 164.18 150.43 164.77 152.35 C 162.82 152.14 160.89 151.85 158.95 151.67 C 159.27 153.59 159.75 155.48 160.06 157.41 C 158.15 157.25 156.28 156.82 154.41 156.45 C 154.65 158.37 154.98 160.27 155.18 162.19 C 153.34 161.93 151.53 161.49 149.69 161.24 C 149.53 162.96 149.80 164.68 149.83 166.40 C 147.84 166.90 145.91 165.70 143.99 165.31 C 144.25 167.00 144.46 168.70 144.63 170.40 C 142.61 171.10 140.75 169.57 138.85 169.13 C 138.63 170.87 138.61 172.63 138.44 174.38 C 136.43 174.13 134.61 173.15 132.71 172.49 C 132.66 174.02 132.64 175.55 132.65 177.08 C 132.34 177.29 131.71 177.71 131.39 177.92 C 129.95 177.12 128.76 175.40 127.00 175.48 C 126.59 177.06 126.37 178.68 125.99 180.27 C 123.95 180.82 122.75 177.72 120.80 178.18 C 120.22 179.73 119.79 181.33 119.23 182.89 C 117.44 181.94 115.83 180.69 114.15 179.57 C 113.40 181.20 113.98 183.94 112.00 184.67 C 110.53 183.43 109.20 182.04 107.79 180.74 C 107.30 182.38 106.82 184.03 106.35 185.68 C 105.94 185.70 105.13 185.72 104.73 185.73 C 103.58 184.41 102.44 183.09 101.29 181.79 C 100.30 183.40 100.22 185.90 98.25 186.71 C 96.89 185.65 96.39 183.05 94.42 183.09 C 93.65 184.29 93.00 185.56 92.34 186.82 C 92.00 186.75 91.32 186.62 90.97 186.56 C 90.12 185.19 89.31 183.78 88.36 182.48 C 87.17 183.82 86.16 185.30 85.02 186.68 C 83.35 185.76 82.98 183.59 81.86 182.16 C 80.44 183.11 79.48 184.55 78.42 185.86 C 78.11 185.75 77.48 185.54 77.16 185.43 C 76.41 183.88 75.70 182.31 75.03 180.72 C 73.93 182.04 72.84 183.37 71.65 184.59 C 69.62 183.78 69.67 181.06 68.39 179.48 C 67.08 180.69 65.88 182.01 64.67 183.32 C 63.67 181.41 62.83 179.42 61.94 177.45 C 60.63 178.62 59.32 179.81 57.93 180.89 C 57.01 179.08 56.70 177.07 56.07 175.16 C 54.65 175.97 53.33 176.96 51.87 177.71 C 49.86 177.11 51.06 174.21 50.36 172.69 C 48.33 172.51 46.85 174.31 45.16 175.13 C 44.93 173.11 44.73 171.09 44.53 169.07 C 42.52 169.71 40.54 170.40 38.51 171.00 C 38.84 169.06 39.16 167.12 39.49 165.19 C 37.58 165.76 35.70 166.43 33.76 166.89 C 33.32 165.02 33.72 163.09 33.67 161.20 C 31.94 161.50 30.24 161.99 28.51 162.34 C 28.03 160.41 29.25 158.20 28.25 156.47 C 26.57 156.85 24.91 157.27 23.26 157.74 C 23.60 155.77 24.03 153.81 24.27 151.83 C 22.42 151.61 20.23 152.74 18.62 151.48 C 19.12 149.79 19.75 148.15 20.25 146.47 C 18.33 146.46 16.41 146.60 14.49 146.67 C 15.11 144.84 15.82 143.04 16.35 141.18 C 14.40 140.78 12.41 140.60 10.45 140.23 C 11.40 138.68 12.46 137.19 13.51 135.71 C 11.58 135.41 9.63 135.04 7.83 134.27 C 7.63 132.24 9.70 130.71 10.45 128.92 C 8.46 128.75 6.46 128.60 4.47 128.44 C 5.56 126.86 6.70 125.29 7.51 123.53 C 6.31 122.15 4.21 122.23 2.66 121.46 C 3.48 120.03 4.47 118.71 5.34 117.31 C 4.58 115.47 1.91 115.45 0.33 114.43 C 1.83 113.00 3.32 111.57 4.76 110.08 C 3.18 109.55 1.59 109.04 0.00 108.53 L 0.00 107.05 C 1.19 105.75 2.43 104.51 3.65 103.24 C 2.43 102.84 1.22 102.45 0.00 102.06 L 0.00 99.92 C 0.93 98.94 1.93 98.04 2.82 97.03 C 1.93 96.21 0.95 95.49 0.00 94.74 L 0.00 92.76 C 0.61 92.35 1.83 91.51 2.44 91.09 C 2.48 90.79 2.56 90.18 2.60 89.87 C 1.72 89.33 0.86 88.78 0.00 88.21 L 0.00 86.39 C 1.06 85.41 2.19 84.51 3.23 83.52 C 2.18 82.59 1.07 81.74 0.00 80.83 L 0.00 79.13 C 1.39 78.65 2.79 78.19 4.15 77.62 C 3.10 75.87 1.78 74.31 0.58 72.67 C 2.19 71.83 4.89 72.26 5.62 70.25 C 4.46 68.91 3.17 67.70 1.91 66.45 C 3.89 65.84 5.86 65.20 7.81 64.53 C 6.61 62.93 5.43 61.32 4.37 59.62 C 6.38 59.19 8.39 58.80 10.40 58.39 C 9.30 56.78 8.16 55.19 7.03 53.59 C 9.00 53.14 11.01 52.81 12.95 52.23 C 12.25 50.46 11.34 48.78 10.66 47.00 C 12.64 46.75 14.65 46.67 16.64 46.50 C 15.80 44.95 14.92 43.42 14.18 41.82 C 15.91 40.81 18.03 41.40 19.92 41.09 C 19.56 39.19 18.83 37.34 18.73 35.39 C 20.68 35.52 22.60 35.88 24.52 36.17 C 23.89 34.18 23.24 32.20 22.60 30.22 C 24.69 30.56 26.78 30.91 28.87 31.23 C 28.43 29.33 28.00 27.44 27.61 25.53 C 29.49 25.81 31.36 26.21 33.25 26.42 C 33.60 24.51 33.40 22.56 33.59 20.63 C 35.24 21.22 36.85 21.91 38.50 22.51 C 38.77 20.59 38.76 18.65 38.95 16.73 C 40.70 17.33 42.41 18.05 44.20 18.53 C 44.49 16.87 44.52 15.18 44.74 13.51 C 46.71 12.78 48.40 15.72 50.23 14.64 C 50.55 13.00 50.66 11.33 50.92 9.69 C 52.76 10.40 54.36 12.14 56.44 11.96 C 56.72 10.20 56.94 8.44 57.10 6.66 C 58.55 7.72 60.02 8.76 61.50 9.77 C 61.82 9.61 62.48 9.28 62.80 9.12 C 63.37 7.65 62.60 4.91 64.80 4.77 C 65.80 5.67 66.69 6.68 67.61 7.66 C 67.99 7.62 68.77 7.53 69.16 7.49 C 69.55 5.96 69.93 4.42 70.43 2.92 C 72.11 3.84 73.48 5.21 75.02 6.33 C 75.98 4.73 76.76 3.02 77.76 1.44 C 78.99 2.74 80.09 4.16 81.34 5.45 C 82.79 4.53 83.11 2.70 83.88 1.28 Z" />
<path fill="#ffffff" d=" M 82.55 7.85 C 103.01 5.64 124.20 11.06 141.04 22.91 C 156.01 33.26 167.50 48.51 173.40 65.71 C 179.89 84.44 179.62 105.42 172.63 123.96 C 166.29 141.09 154.23 155.97 139.01 166.01 C 122.05 177.17 101.06 182.11 80.93 179.45 C 62.16 177.21 44.23 168.47 30.89 155.08 C 18.27 142.74 9.64 126.37 6.59 108.98 C 2.86 88.69 6.83 67.11 17.49 49.45 C 31.11 26.43 55.91 10.52 82.55 7.85 Z" />
<path fill="#930684" d=" M 80.39 9.61 C 100.16 6.88 120.84 11.52 137.61 22.34 C 152.65 31.95 164.50 46.45 170.93 63.11 C 177.22 79.23 178.29 97.30 174.19 114.10 C 169.85 131.78 159.65 147.99 145.48 159.45 C 130.59 171.74 111.35 178.69 92.03 178.62 C 74.78 178.81 57.53 173.46 43.36 163.63 C 26.48 151.98 13.97 134.09 9.15 114.12 C 4.40 95.20 6.52 74.67 14.99 57.10 C 26.97 31.60 52.42 13.11 80.39 9.61 Z" />
<path fill="#ffffff" d=" M 73.02 15.09 C 74.43 14.66 74.89 15.13 74.42 16.52 C 73.00 16.95 72.53 16.47 73.02 15.09 Z" />
<path fill="#ffffff" d=" M 67.01 19.99 C 72.24 17.65 78.13 17.75 83.37 15.54 C 83.16 16.63 82.95 17.73 82.74 18.82 L 83.86 18.98 C 83.86 18.19 83.85 16.62 83.85 15.83 C 86.74 17.45 84.05 19.84 83.68 21.81 C 84.72 20.90 86.93 20.68 86.75 18.87 C 86.43 17.80 85.95 16.79 85.31 15.86 C 89.84 15.74 94.41 15.49 98.90 16.32 C 98.61 16.67 98.04 17.38 97.75 17.73 C 97.54 19.76 97.31 21.81 96.64 23.75 C 96.51 22.67 96.23 20.52 96.10 19.44 C 95.37 19.71 93.91 20.24 93.18 20.50 C 92.56 19.90 92.07 19.18 91.54 18.52 C 93.12 18.46 94.71 18.41 96.29 18.37 L 96.36 16.77 C 94.51 16.79 92.66 16.79 90.81 16.80 C 90.77 19.09 90.99 21.47 90.08 23.63 C 89.35 21.12 90.33 17.83 87.90 16.06 C 87.82 18.49 87.86 20.92 87.92 23.35 C 87.57 22.95 86.87 22.14 86.52 21.74 C 83.95 22.77 81.64 20.97 79.33 20.12 C 80.03 21.55 80.74 22.98 81.46 24.40 C 79.65 23.04 78.03 21.46 76.50 19.80 C 77.32 19.68 78.97 19.43 79.80 19.31 C 78.44 18.44 76.83 18.42 75.28 18.37 C 75.66 20.69 75.92 23.03 76.01 25.38 C 75.41 24.09 74.82 22.80 74.26 21.50 C 73.67 21.69 72.48 22.08 71.89 22.27 C 72.68 23.39 73.47 24.51 74.23 25.65 C 72.16 24.71 70.30 23.40 68.60 21.91 C 69.46 21.66 71.20 21.14 72.07 20.88 C 70.37 20.63 68.69 20.33 67.01 19.99 Z" />
<path fill="#ffffff" d=" M 103.52 25.28 C 101.67 21.98 102.00 17.53 105.51 15.46 C 103.98 18.53 103.47 21.88 103.52 25.28 Z" />
<path fill="#ffffff" d=" M 107.48 17.19 C 110.83 18.27 114.21 19.26 117.56 20.34 C 116.31 22.34 115.44 24.54 114.71 26.77 C 114.42 26.64 113.83 26.37 113.54 26.24 C 114.22 24.43 114.89 22.61 115.55 20.79 C 114.27 20.51 112.99 20.23 111.71 19.96 C 112.29 20.49 113.44 21.56 114.02 22.09 C 113.20 23.39 112.28 24.63 111.05 25.57 C 111.51 24.10 111.99 22.64 112.49 21.18 C 110.46 21.57 109.74 22.87 110.33 25.08 C 108.88 24.50 107.45 23.90 106.02 23.29 C 106.56 21.27 107.02 19.23 107.48 17.19 Z" />
<path fill="#930684" d=" M 80.21 18.15 C 83.22 16.66 80.30 21.52 80.21 18.15 Z" />
<path fill="#ffffff" d=" M 58.40 19.43 C 60.56 18.79 62.25 20.58 64.01 21.51 C 64.43 23.87 65.17 26.15 65.78 28.45 C 63.94 27.27 63.50 25.01 62.67 23.13 C 61.72 23.34 59.82 23.74 58.87 23.95 C 59.93 25.00 63.03 24.82 62.66 26.97 C 62.38 27.86 62.06 28.73 61.70 29.59 C 61.79 27.55 61.02 26.05 59.37 25.08 C 59.74 26.81 60.16 28.53 60.65 30.23 C 59.25 30.44 57.86 30.65 56.46 30.87 L 56.23 29.26 C 55.61 29.94 55.00 30.61 54.40 31.30 L 56.51 31.79 C 55.49 34.53 54.59 32.00 53.93 31.23 C 52.97 30.00 52.35 28.17 50.39 28.24 C 51.25 29.76 52.15 31.26 53.07 32.74 C 52.42 32.78 51.11 32.87 50.46 32.92 C 50.41 32.14 50.32 30.60 50.28 29.82 C 49.61 30.09 48.28 30.62 47.62 30.89 C 48.99 32.78 50.40 34.71 51.02 37.01 C 49.20 35.67 48.03 32.67 45.96 32.26 C 45.30 34.68 48.27 36.24 49.08 38.35 C 46.74 37.22 45.19 35.07 43.37 33.30 C 42.88 35.90 45.36 37.35 46.70 39.11 C 45.41 39.96 44.13 40.81 42.84 41.65 C 41.77 41.04 40.70 40.44 39.62 39.85 C 39.56 39.22 39.44 37.97 39.38 37.35 C 39.02 37.89 38.29 38.97 37.93 39.51 C 39.25 41.15 40.81 42.58 42.15 44.20 C 39.80 43.20 37.85 41.52 35.59 40.36 C 36.86 42.48 38.62 44.22 40.32 46.00 C 39.63 45.85 38.27 45.53 37.58 45.38 C 37.47 46.63 37.35 47.88 37.24 49.14 C 35.89 46.95 33.50 45.96 31.26 44.96 C 32.90 43.14 34.54 41.31 36.15 39.46 C 35.29 39.60 33.56 39.87 32.69 40.01 C 33.19 38.98 33.69 37.95 34.18 36.91 C 35.15 37.48 36.12 38.06 37.09 38.65 C 39.15 36.58 41.29 34.60 43.56 32.78 C 42.10 32.40 40.60 31.96 39.93 30.48 C 41.70 30.75 43.32 31.77 45.13 31.80 C 45.24 30.66 45.03 29.58 44.48 28.54 C 45.95 26.28 49.14 25.52 51.25 27.37 C 53.67 26.03 56.05 24.63 58.48 23.32 C 58.39 22.02 58.36 20.73 58.40 19.43 Z" />
<path fill="#930684" d=" M 73.17 19.05 C 74.50 19.71 74.47 20.36 73.10 21.00 C 71.78 20.34 71.80 19.69 73.17 19.05 Z" />
<path fill="#ffffff" d=" M 121.73 22.15 C 122.49 21.46 123.24 20.75 124.07 20.14 C 127.04 19.72 128.09 23.02 128.72 25.27 C 129.41 25.65 130.09 26.03 130.78 26.41 C 129.64 26.91 128.51 27.41 127.37 27.92 C 127.15 29.10 126.92 30.27 126.66 31.45 C 126.52 30.74 126.24 29.34 126.10 28.63 C 125.41 28.61 124.03 28.57 123.35 28.54 C 123.89 29.81 124.42 31.08 124.92 32.37 C 124.09 31.48 122.65 30.97 122.35 29.69 C 122.68 28.29 123.38 27.02 123.93 25.70 C 124.83 25.62 126.64 25.45 127.54 25.37 C 126.09 24.92 124.62 24.49 123.16 24.06 C 122.23 26.03 121.27 28.01 119.71 29.57 C 120.41 27.10 121.32 24.69 121.73 22.15 Z" />
<path fill="#930684" d=" M 60.00 21.19 C 60.57 21.84 60.57 21.84 60.00 21.19 Z" />
<path fill="#930684" d=" M 107.46 20.94 C 109.06 20.39 109.62 20.94 109.12 22.59 C 107.50 23.14 106.95 22.59 107.46 20.94 Z" />
<path fill="#930684" d=" M 124.00 21.64 C 125.18 20.91 127.23 22.49 126.67 23.79 C 125.52 24.36 123.26 22.98 124.00 21.64 Z" />
<path fill="#ffffff" d=" M 116.51 26.19 C 118.13 25.64 118.68 26.18 118.16 27.82 C 116.55 28.36 116.00 27.82 116.51 26.19 Z" />
<path fill="#930684" d=" M 53.98 27.57 C 56.41 26.81 54.78 30.35 53.58 28.40 L 53.98 27.57 Z" />
<path fill="#ffffff" d=" M 133.53 28.48 C 134.87 27.96 136.20 26.75 137.72 27.23 C 139.54 28.34 139.72 30.58 139.87 32.48 C 140.21 33.01 140.55 33.54 140.89 34.07 C 139.16 35.61 137.57 37.29 135.99 38.98 C 135.19 37.61 134.33 36.28 133.59 34.88 C 134.13 33.87 134.83 32.96 135.69 32.16 C 136.89 32.98 138.11 33.77 139.35 34.53 C 137.96 33.00 136.44 31.59 134.95 30.16 C 133.65 32.11 132.30 34.08 130.43 35.54 C 131.48 33.19 132.70 30.92 133.53 28.48 Z" />
<path fill="#930684" d=" M 46.39 29.55 C 45.59 28.11 48.10 27.02 49.13 27.88 C 49.90 29.27 47.39 30.38 46.39 29.55 Z" />
<path fill="#930684" d=" M 57.12 28.32 C 57.90 28.72 57.90 28.72 57.12 28.32 Z" />
<path fill="#ffffff" d=" M 85.51 28.84 C 101.16 27.37 117.31 31.75 129.99 41.06 C 142.63 50.15 151.73 63.96 155.22 79.12 C 158.24 92.54 157.06 106.95 151.54 119.59 C 143.53 138.27 126.34 152.76 106.48 157.24 C 93.81 159.97 80.24 159.33 68.14 154.54 C 52.84 148.68 39.98 136.78 32.90 122.03 C 26.94 109.68 24.91 95.40 27.54 81.92 C 30.48 65.52 40.10 50.46 53.67 40.82 C 62.97 34.09 74.10 30.00 85.51 28.84 Z" />
<path fill="#930684" d=" M 136.07 28.61 C 137.41 27.92 138.96 29.92 138.47 31.17 C 137.23 31.75 135.42 29.83 136.07 28.61 Z" />
<path fill="#930684" d=" M 135.29 34.36 C 136.69 33.88 137.22 34.34 136.88 35.74 C 135.48 36.23 134.95 35.78 135.29 34.36 Z" />
<path fill="#930684" d=" M 41.41 35.28 C 42.70 36.55 43.72 38.05 44.37 39.74 C 43.66 39.64 42.23 39.43 41.52 39.33 C 41.47 37.98 41.44 36.63 41.41 35.28 Z" />
<path fill="#ffffff" d=" M 139.73 43.94 C 142.01 41.46 144.35 39.02 146.80 36.71 C 145.93 40.27 143.27 43.00 139.73 43.94 Z" />
<path fill="#ffffff" d=" M 137.79 39.11 C 139.40 38.58 139.95 39.13 139.44 40.76 C 137.82 41.29 137.27 40.74 137.79 39.11 Z" />
<path fill="#ffffff" d=" M 148.70 41.90 C 153.21 45.29 155.82 50.42 158.77 55.08 C 161.61 59.57 163.72 64.48 165.15 69.59 C 166.41 69.53 167.66 69.47 168.93 69.42 C 168.97 71.61 168.12 73.56 166.81 75.27 C 164.29 75.49 161.80 75.93 159.29 76.13 C 161.41 74.67 164.53 74.56 165.87 72.12 C 163.41 72.61 161.02 73.35 158.55 73.79 C 159.57 72.94 160.67 72.19 161.78 71.47 C 161.67 70.86 161.45 69.65 161.34 69.05 C 160.20 69.87 159.05 70.67 157.90 71.46 C 158.97 69.49 160.18 67.60 161.52 65.80 C 161.59 66.44 161.74 67.70 161.81 68.33 L 163.54 68.22 C 163.11 66.94 162.68 65.65 162.26 64.37 C 160.33 65.31 158.41 66.26 156.38 66.97 C 157.80 64.93 160.13 63.92 162.15 62.62 C 160.30 62.70 158.45 62.78 156.61 62.86 C 156.57 61.30 156.81 59.76 157.16 58.25 C 157.57 58.37 158.40 58.61 158.81 58.73 L 159.20 58.04 L 158.67 57.48 C 158.30 57.68 157.54 58.06 157.16 58.25 C 155.82 59.23 154.18 59.62 152.60 59.99 C 154.27 58.20 157.20 57.53 158.08 55.10 C 156.93 54.19 155.45 54.64 154.13 54.63 C 153.51 55.90 152.88 57.17 152.21 58.41 C 152.35 56.20 152.72 54.02 153.15 51.86 C 154.20 52.45 155.25 53.04 156.31 53.64 C 155.68 52.44 155.04 51.26 154.40 50.08 C 152.53 51.26 150.68 52.49 148.63 53.33 C 150.26 51.25 152.83 49.87 153.65 47.21 C 151.56 48.31 149.63 49.67 147.75 51.08 C 147.30 49.35 144.69 45.42 147.99 45.22 C 148.78 45.34 150.35 45.58 151.13 45.70 C 150.23 44.49 149.42 43.22 148.70 41.90 Z" />
<path fill="#930684" d=" M 34.30 43.24 C 35.55 42.20 37.34 44.31 35.99 45.30 C 34.75 46.30 32.93 44.22 34.30 43.24 Z" />
<path fill="#930684" d=" M 147.94 46.51 C 149.35 46.12 149.82 46.62 149.38 48.02 C 147.96 48.42 147.48 47.91 147.94 46.51 Z" />
<path fill="#ffffff" d=" M 24.38 55.20 C 25.94 52.84 27.44 50.44 28.99 48.07 C 30.78 50.02 32.71 51.84 34.61 53.70 C 33.99 53.52 32.75 53.16 32.13 52.98 C 31.64 54.90 30.21 57.26 27.87 56.11 C 27.70 55.43 27.35 54.08 27.18 53.40 C 26.55 54.23 25.92 55.06 25.29 55.90 C 27.21 56.99 29.35 57.94 30.47 59.97 C 28.00 59.01 25.76 57.31 22.99 57.31 C 25.13 59.01 27.49 60.44 29.48 62.33 C 27.86 61.82 26.28 61.20 24.71 60.56 C 24.48 61.57 24.24 62.58 24.01 63.60 C 25.47 63.67 26.93 63.74 28.39 63.86 C 26.78 64.59 25.02 65.05 23.25 64.72 C 22.23 63.03 23.40 61.22 23.67 59.50 C 22.58 61.34 21.55 63.22 20.46 65.06 C 21.32 65.82 22.18 66.59 23.03 67.36 C 24.16 66.94 25.29 66.53 26.43 66.15 C 25.28 68.62 22.34 68.80 20.11 69.72 C 20.49 68.88 21.25 67.21 21.63 66.37 C 19.96 66.86 19.52 68.57 18.72 69.86 C 20.91 70.64 23.23 71.28 25.01 72.87 C 22.55 72.69 20.12 71.23 17.64 71.88 C 19.49 73.66 22.11 74.17 24.36 75.26 C 22.89 75.42 21.42 75.53 19.94 75.66 C 20.46 76.29 21.49 77.54 22.00 78.17 C 19.78 78.46 17.55 78.61 15.32 78.79 C 15.32 78.09 15.33 76.68 15.33 75.97 C 16.71 76.18 18.10 76.32 19.50 76.40 C 19.48 75.65 19.45 74.90 19.42 74.15 C 18.16 74.63 16.89 75.05 15.62 75.51 C 18.06 70.35 19.24 64.68 22.01 59.65 C 21.30 59.20 19.89 58.30 19.18 57.86 C 20.06 55.56 22.11 55.01 24.38 55.20 Z" />
<path fill="#930684" d=" M 29.33 55.66 C 28.52 54.04 26.22 49.74 30.02 50.74 C 30.93 52.43 30.66 54.29 29.33 55.66 Z" />
<path fill="#930684" d=" M 49.73 54.19 C 63.36 59.85 79.01 58.11 92.16 51.96 C 105.01 57.98 119.69 58.34 133.34 55.15 C 136.03 74.40 135.20 94.60 127.80 112.77 C 121.32 129.14 109.44 143.22 94.62 152.66 C 93.60 153.04 92.45 154.50 91.35 153.54 C 76.32 144.65 63.32 131.66 56.33 115.48 C 47.84 96.30 47.46 74.71 49.73 54.19 Z" />
<path fill="#930684" d=" M 21.32 57.02 C 24.23 55.28 21.66 60.39 21.32 57.02 Z" />
<path fill="#ffffff" d=" M 53.35 59.86 C 65.74 63.04 79.02 61.83 90.81 56.96 C 90.81 63.76 90.76 70.57 90.84 77.37 C 89.39 77.66 87.95 77.95 86.51 78.26 C 80.98 74.47 74.06 70.46 67.16 72.25 C 63.93 72.94 64.18 76.56 64.13 79.11 C 63.70 79.50 62.84 80.28 62.41 80.67 C 61.22 80.17 60.03 79.68 58.83 79.22 C 59.68 80.17 60.57 81.08 61.49 81.98 C 61.89 83.11 62.29 84.25 62.70 85.38 C 62.11 86.52 61.53 87.66 60.96 88.82 C 61.99 87.97 63.01 87.12 64.02 86.26 C 64.68 86.36 66.00 86.58 66.67 86.69 C 68.67 90.19 72.56 92.89 72.60 97.25 C 66.65 97.29 60.70 97.31 54.75 97.30 C 52.40 84.98 51.91 72.32 53.35 59.86 Z" />
<path fill="#ffffff" d=" M 93.21 56.74 C 100.45 59.60 108.19 61.27 115.98 61.30 C 120.70 61.35 125.36 60.43 130.06 60.15 C 131.09 72.53 131.17 85.13 128.33 97.29 C 123.24 97.26 118.14 97.32 113.05 97.31 C 112.72 86.79 103.84 77.46 93.18 77.30 C 93.24 70.45 93.21 63.59 93.21 56.74 Z" />
<path fill="#930684" d=" M 157.16 58.25 C 157.54 58.06 158.30 57.68 158.67 57.48 L 159.20 58.04 L 158.81 58.73 C 158.40 58.61 157.57 58.37 157.16 58.25 Z" />
<path fill="#930684" d=" M 158.25 61.62 C 157.96 60.24 158.52 59.73 159.92 60.09 C 160.22 61.46 159.66 61.97 158.25 61.62 Z" />
<path fill="#a30000" d=" M 115.56 70.78 C 115.72 68.64 115.57 66.43 116.30 64.38 C 116.60 66.52 116.68 68.68 116.81 70.84 C 117.42 70.08 118.64 68.57 119.26 67.82 C 119.16 68.73 118.97 70.57 118.88 71.49 C 120.30 69.94 121.65 68.32 123.20 66.88 C 122.41 68.97 121.12 70.80 119.87 72.63 C 120.79 72.58 122.64 72.50 123.57 72.46 C 122.89 73.02 121.52 74.16 120.84 74.73 C 122.73 74.70 124.62 74.65 126.52 74.61 L 126.50 75.58 C 124.54 75.62 122.59 75.68 120.64 75.76 C 121.29 76.42 122.61 77.72 123.27 78.37 C 122.40 78.30 120.65 78.15 119.78 78.08 C 121.38 79.49 123.03 80.88 124.31 82.60 C 122.44 81.60 120.76 80.30 119.10 78.99 C 119.20 79.77 119.39 81.34 119.49 82.13 C 118.83 81.51 117.52 80.28 116.86 79.67 C 116.76 81.47 116.69 83.27 116.65 85.08 C 116.41 85.25 115.94 85.59 115.70 85.76 C 115.73 83.82 115.78 81.88 115.83 79.94 C 115.22 80.59 114.02 81.89 113.42 82.54 L 114.03 78.99 C 112.32 80.39 110.69 81.90 108.84 83.13 C 109.94 81.35 111.31 79.76 112.59 78.12 C 111.73 78.24 109.99 78.48 109.12 78.60 C 110.08 77.71 111.02 76.81 111.97 75.90 C 109.78 75.69 107.58 75.57 105.41 75.21 C 107.42 74.58 109.55 74.67 111.64 74.56 C 110.98 73.95 109.65 72.71 108.99 72.10 C 109.86 72.27 111.60 72.61 112.46 72.79 C 111.03 71.19 109.49 69.69 108.15 68.01 C 110.10 69.06 111.85 70.43 113.68 71.68 C 113.53 70.78 113.22 68.97 113.07 68.07 C 113.69 68.75 114.94 70.10 115.56 70.78 Z" />
<path fill="#930684" d=" M 163.19 69.36 C 166.53 69.76 161.41 72.22 163.19 69.36 Z" />
<path fill="#930684" d=" M 166.38 70.95 C 167.79 70.50 168.22 70.99 167.67 72.41 C 166.26 72.86 165.83 72.38 166.38 70.95 Z" />
<path fill="#ffffff" d=" M 114.09 71.73 C 116.91 69.70 121.18 72.72 120.24 76.00 C 119.74 78.50 116.52 80.49 114.29 78.77 C 111.48 77.54 111.41 73.14 114.09 71.73 Z" />
<path fill="#ffffff" d=" M 65.43 73.83 C 72.08 70.94 79.23 74.63 84.82 78.24 C 83.92 79.58 82.23 80.11 81.00 81.10 C 76.72 83.79 74.11 88.37 72.62 93.08 C 71.02 90.57 68.08 88.31 67.95 85.23 C 69.45 85.29 70.94 85.47 72.44 85.60 C 71.42 84.91 70.38 84.24 69.34 83.58 C 68.43 81.26 69.27 79.07 70.37 76.98 C 69.20 77.99 68.03 79.01 66.86 80.03 C 64.85 78.48 65.47 75.99 65.43 73.83 Z" />
<path fill="#ffffff" d=" M 82.77 81.79 C 85.15 80.79 87.58 79.91 90.05 79.14 C 89.10 81.51 88.08 83.84 87.08 86.19 C 85.63 84.74 84.18 83.28 82.77 81.79 Z" />
<path fill="#ffffff" d=" M 94.14 79.10 C 96.93 79.69 99.66 80.57 102.28 81.71 C 100.77 83.35 99.13 84.86 97.39 86.25 C 96.33 83.85 95.22 81.48 94.14 79.10 Z" />
<path fill="#ffffff" d=" M 88.93 87.56 C 89.70 84.89 90.30 81.91 92.36 79.89 C 93.82 82.29 94.84 84.91 95.83 87.53 C 93.53 87.65 91.23 87.67 88.93 87.56 Z" />
<path fill="#ffffff" d=" M 0.00 80.83 C 1.07 81.74 2.18 82.59 3.23 83.52 C 2.19 84.51 1.06 85.41 0.00 86.39 L 0.00 80.83 Z" />
<path fill="#ffffff" d=" M 62.21 82.76 C 63.51 81.71 65.15 78.93 67.00 80.85 C 68.38 81.60 67.56 83.51 67.89 84.78 C 65.52 85.87 63.60 84.75 62.21 82.76 Z" />
<path fill="#ffffff" d=" M 103.82 82.96 C 105.33 84.37 106.80 85.83 108.26 87.30 C 105.20 89.07 101.91 90.41 98.47 91.19 C 98.38 90.41 98.20 88.85 98.11 88.07 C 100.12 86.49 102.01 84.76 103.82 82.96 Z" />
<path fill="#ffffff" d=" M 16.45 84.63 C 18.54 83.37 21.36 85.54 20.64 87.89 C 20.29 90.31 16.46 90.55 15.33 88.64 C 14.95 87.27 14.93 85.31 16.45 84.63 Z" />
<path fill="#ffffff" d=" M 76.93 87.42 C 78.29 85.92 79.66 84.45 81.06 82.98 C 82.86 84.72 84.69 86.43 86.63 88.02 C 86.45 88.91 86.09 90.70 85.91 91.60 C 82.74 90.60 79.71 89.22 76.93 87.42 Z" />
<path fill="#ffffff" d=" M 163.45 84.71 C 166.95 82.23 169.88 88.73 166.00 89.75 C 162.77 91.15 160.75 86.35 163.45 84.71 Z" />
<path fill="#ffffff" d=" M 0.00 88.21 C 0.86 88.78 1.72 89.33 2.60 89.87 C 2.56 90.18 2.48 90.79 2.44 91.09 C 1.83 91.51 0.61 92.35 0.00 92.76 L 0.00 88.21 Z" />
<path fill="#ffffff" d=" M 75.96 89.20 C 79.02 90.88 82.20 92.34 85.48 93.53 C 85.33 96.44 85.32 99.36 85.42 102.27 C 84.29 102.64 83.16 103.01 82.03 103.39 C 80.20 101.59 78.41 99.73 76.88 97.67 C 76.49 98.07 76.10 98.48 75.72 98.90 C 77.64 100.41 79.39 102.12 81.08 103.88 C 79.38 104.66 77.68 105.46 75.98 106.25 C 74.98 103.20 74.23 100.09 73.56 96.97 C 74.08 97.06 75.14 97.25 75.66 97.35 C 73.18 94.87 75.29 91.86 75.96 89.20 Z" />
<path fill="#ffffff" d=" M 87.07 91.55 C 88.49 87.55 93.34 90.28 96.46 89.36 C 96.56 89.95 96.76 91.12 96.85 91.71 C 93.61 92.43 90.26 92.60 87.07 91.55 Z" />
<path fill="#ffffff" d=" M 99.20 93.15 C 102.63 92.00 105.95 90.60 109.25 89.14 C 111.54 94.70 111.56 100.88 109.11 106.39 C 105.86 104.95 102.56 103.61 99.20 102.45 C 99.37 99.35 99.33 96.25 99.20 93.15 Z" />
<path fill="#ffffff" d=" M 87.17 101.71 C 87.22 99.05 87.26 96.39 87.36 93.74 C 90.65 94.34 94.00 94.20 97.28 93.61 C 97.42 96.34 97.48 99.07 97.44 101.80 C 94.02 101.56 90.59 101.50 87.17 101.71 Z" />
<path fill="#ffffff" d=" M 0.00 94.74 C 0.95 95.49 1.93 96.21 2.82 97.03 C 1.93 98.04 0.93 98.94 0.00 99.92 L 0.00 94.74 Z" />
<path fill="#ffffff" d=" M 15.32 95.61 C 17.57 95.86 20.41 94.97 21.92 97.22 C 19.32 97.57 16.69 97.53 14.07 97.36 C 14.39 96.92 15.01 96.04 15.32 95.61 Z" />
<path fill="#ffffff" d=" M 162.40 95.65 C 164.68 95.68 166.96 95.88 169.18 96.40 C 167.42 97.36 166.82 99.02 168.59 100.23 C 168.43 101.56 168.26 102.89 168.09 104.22 C 167.56 105.08 167.03 105.95 166.51 106.82 C 166.97 107.82 167.41 108.83 167.85 109.85 C 165.66 108.84 163.49 107.80 161.33 106.73 C 161.39 106.21 161.52 105.17 161.58 104.65 C 163.28 104.34 164.98 104.04 166.68 103.73 C 166.77 102.40 166.86 101.07 166.95 99.75 C 166.06 100.84 165.17 101.94 164.28 103.04 C 162.50 102.24 160.55 99.95 163.04 98.57 C 163.24 99.26 163.63 100.64 163.83 101.33 C 164.27 100.23 166.68 98.69 165.06 97.68 C 164.35 97.59 162.92 97.43 162.20 97.35 C 162.25 96.93 162.35 96.08 162.40 95.65 Z" />
<path fill="#ffffff" d=" M 13.98 100.34 C 15.92 98.04 19.15 98.80 21.80 98.65 C 20.60 100.27 19.28 101.79 17.97 103.31 C 18.84 103.17 20.56 102.90 21.42 102.76 L 21.58 104.58 C 19.22 104.68 16.86 104.75 14.50 104.69 C 15.64 103.23 16.88 101.84 18.10 100.45 C 17.07 100.42 15.01 100.37 13.98 100.34 Z" />
<path fill="#ffffff" d=" M 55.17 99.43 C 60.85 99.43 66.54 99.44 72.22 99.43 C 73.17 109.04 81.15 117.09 90.80 117.96 C 90.81 128.15 90.79 138.35 90.80 148.54 C 76.86 139.53 64.90 126.84 58.91 111.17 C 57.37 107.35 56.27 103.38 55.17 99.43 Z" />
<path fill="#ffffff" d=" M 112.80 99.45 C 117.83 99.43 122.86 99.42 127.89 99.44 C 123.12 119.55 110.49 137.52 93.19 148.82 C 93.25 138.55 93.19 128.27 93.23 118.00 C 95.42 117.66 97.61 117.30 99.78 116.85 C 103.44 118.45 107.63 119.48 111.56 118.32 C 115.81 116.09 114.69 110.54 112.90 107.04 C 111.41 104.66 112.37 101.97 112.80 99.45 Z" />
<path fill="#ffffff" d=" M 0.00 102.06 C 1.22 102.45 2.43 102.84 3.65 103.24 C 2.43 104.51 1.19 105.75 0.00 107.05 L 0.00 102.06 Z" />
<path fill="#ffffff" d=" M 87.44 103.53 C 90.59 103.27 93.75 103.32 96.88 103.76 C 96.80 104.47 96.64 105.91 96.56 106.62 C 93.83 105.80 91.00 105.75 88.30 106.66 C 88.01 105.62 87.72 104.58 87.44 103.53 Z" />
<path fill="#ffffff" d=" M 98.72 104.26 C 101.88 105.34 104.99 106.58 108.04 107.95 C 106.62 109.51 105.18 111.05 103.74 112.59 C 101.92 110.88 100.09 109.17 98.19 107.54 C 98.36 106.45 98.54 105.35 98.72 104.26 Z" />
<path fill="#ffffff" d=" M 84.99 104.92 C 85.60 105.50 85.60 105.50 84.99 104.92 Z" />
<path fill="#ffffff" d=" M 15.04 106.53 C 17.26 106.07 19.49 105.63 21.72 105.20 C 21.80 106.84 21.87 108.48 21.94 110.13 C 20.67 110.52 19.51 111.76 18.09 111.32 C 15.93 110.76 15.86 108.22 15.04 106.53 Z" />
<path fill="#ffffff" d=" M 76.95 107.97 C 78.89 106.98 80.84 106.02 82.81 105.10 C 83.88 106.07 84.94 107.04 86.01 108.01 C 84.50 109.47 83.01 110.94 81.56 112.44 C 79.97 111.00 78.45 109.49 76.95 107.97 Z" />
<path fill="#930684" d=" M 164.28 106.22 C 164.77 106.84 164.77 106.84 164.28 106.22 Z" />
<path fill="#930684" d=" M 16.85 107.76 C 18.13 107.58 19.41 107.41 20.69 107.25 C 20.58 107.85 20.37 109.04 20.27 109.64 C 18.79 109.62 17.41 109.27 16.85 107.76 Z" />
<path fill="#a30000" d=" M 65.95 107.27 C 70.02 111.05 74.03 114.89 78.19 118.58 C 77.11 118.67 74.94 118.86 73.86 118.95 C 78.13 123.27 82.91 127.04 87.23 131.30 C 86.00 131.26 83.54 131.17 82.31 131.13 C 83.85 133.00 85.42 134.86 86.90 136.78 C 83.44 133.99 80.15 131.00 76.99 127.87 C 77.75 127.85 79.26 127.79 80.01 127.77 C 75.59 123.60 71.08 119.53 66.65 115.38 C 68.84 115.69 71.02 116.07 73.20 116.44 C 70.80 113.37 68.33 110.36 65.95 107.27 Z" />
<path fill="#ffffff" d=" M 88.49 108.50 C 90.94 107.72 93.51 107.71 95.99 108.34 C 95.50 109.68 94.98 111.01 94.48 112.35 C 92.33 111.32 90.29 110.06 88.49 108.50 Z" />
<path fill="#ffffff" d=" M 106.41 112.45 C 108.55 110.68 109.86 108.18 111.33 105.88 C 112.95 108.76 113.74 111.98 113.65 115.29 C 110.75 119.09 105.71 117.62 101.72 117.03 C 102.75 115.01 104.78 113.91 106.41 112.45 Z" />
<path fill="#ffffff" d=" M 161.11 109.03 C 163.22 109.43 165.31 109.87 167.40 110.36 C 166.43 112.12 164.62 113.03 162.99 114.06 C 163.71 114.14 165.17 114.30 165.89 114.38 C 165.90 114.82 165.93 115.69 165.94 116.13 C 163.75 115.72 161.57 115.31 159.41 114.80 C 160.64 113.19 162.34 112.10 164.03 111.05 C 163.25 110.95 161.71 110.74 160.93 110.63 C 160.98 110.23 161.07 109.43 161.11 109.03 Z" />
<path fill="#ffffff" d=" M 82.88 113.59 C 84.28 112.26 85.71 110.95 87.16 109.68 C 88.14 111.81 89.13 113.94 90.07 116.10 C 87.62 115.41 85.23 114.56 82.88 113.59 Z" />
<path fill="#ffffff" d=" M 97.43 109.54 C 99.03 110.84 100.61 112.16 102.21 113.46 C 99.81 114.37 97.39 115.22 95.03 116.24 C 95.81 114.00 96.59 111.76 97.43 109.54 Z" />
<path fill="#ffffff" d=" M 15.98 114.40 C 17.23 112.07 20.18 111.96 22.47 111.78 C 22.67 112.17 23.05 112.95 23.25 113.33 C 20.83 113.76 18.42 114.19 15.98 114.40 Z" />
<path fill="#ffffff" d=" M 90.50 111.75 C 91.56 111.59 92.41 112.03 93.05 113.09 C 93.82 113.80 93.25 116.05 92.01 115.20 C 91.19 114.30 90.19 113.04 90.50 111.75 Z" />
<path fill="#ffffff" d=" M 16.79 115.37 C 19.10 115.37 21.40 115.39 23.71 115.41 C 24.01 116.08 24.31 116.75 24.61 117.43 C 22.63 118.85 20.54 120.11 18.35 121.17 C 19.87 118.77 18.82 116.88 16.79 115.37 Z" />
<path fill="#930684" d=" M 20.33 116.91 C 23.38 115.52 20.27 120.27 20.33 116.91 Z" />
<path fill="#ffffff" d=" M 158.25 118.41 C 158.61 118.00 159.32 117.19 159.68 116.79 C 161.87 116.76 164.05 116.69 166.24 116.60 C 165.67 117.36 164.53 118.88 163.96 119.64 C 163.39 118.95 162.84 118.27 162.29 117.58 C 161.99 117.99 161.40 118.82 161.11 119.23 C 162.91 119.90 164.59 120.80 164.68 123.03 C 162.35 121.76 160.18 120.22 158.25 118.41 Z" />
<path fill="#ffffff" d=" M 19.06 121.67 C 21.32 121.00 23.58 119.89 26.01 120.25 C 25.22 121.81 24.19 123.22 23.21 124.65 C 24.66 124.46 26.11 124.29 27.58 124.18 C 25.85 126.44 22.90 126.84 20.35 127.58 C 21.12 125.64 22.10 123.79 23.23 122.04 C 22.06 122.51 20.88 122.97 19.70 123.44 L 19.06 121.67 Z" />
<path fill="#ffffff" d=" M 155.82 125.43 C 156.50 124.16 157.18 122.89 157.97 121.69 C 160.02 122.39 161.99 123.29 164.05 123.96 C 163.06 124.54 162.07 125.13 161.08 125.71 C 161.60 126.14 162.65 127.01 163.17 127.44 C 160.56 127.47 158.19 126.33 155.82 125.43 Z" />
<path fill="#930684" d=" M 158.03 123.48 C 159.45 123.02 159.94 123.48 159.51 124.86 C 158.08 125.31 157.59 124.85 158.03 123.48 Z" />
<path fill="#ffffff" d=" M 159.58 134.06 C 157.39 132.34 153.91 130.68 154.45 127.36 C 156.80 127.56 159.14 127.78 161.48 127.98 C 160.64 129.04 159.79 130.09 158.95 131.15 C 159.17 132.12 159.38 133.09 159.58 134.06 Z" />
<path fill="#ffffff" d=" M 23.08 130.96 C 25.31 130.28 27.89 127.33 29.96 129.80 C 27.85 130.73 25.75 131.68 23.66 132.66 C 23.51 132.23 23.22 131.38 23.08 130.96 Z" />
<path fill="#930684" d=" M 156.61 128.98 C 157.07 129.16 157.99 129.52 158.45 129.70 C 158.49 131.55 155.44 130.34 156.61 128.98 Z" />
<path fill="#ffffff" d=" M 24.26 133.89 C 26.31 132.67 28.33 131.12 30.84 131.13 C 30.24 132.73 29.61 134.33 28.96 135.92 C 30.15 135.40 31.32 134.85 32.54 134.42 C 32.82 137.35 28.60 138.07 26.48 138.94 C 27.06 137.05 27.70 135.18 28.39 133.34 C 27.27 134.04 26.15 134.75 25.02 135.46 L 24.26 133.89 Z" />
<path fill="#ffffff" d=" M 152.81 130.13 C 155.10 131.86 156.68 134.30 158.10 136.75 C 155.46 136.70 152.83 136.44 150.23 136.02 C 150.50 135.60 151.02 134.78 151.29 134.36 C 152.50 134.61 153.72 134.86 154.94 135.11 C 154.07 133.52 153.23 131.91 152.81 130.13 Z" />
<path fill="#ffffff" d=" M 31.36 137.07 C 32.85 137.34 34.32 137.71 35.65 138.46 C 35.07 139.22 34.48 139.96 33.88 140.70 L 33.60 138.05 C 32.69 139.50 33.47 143.07 30.96 142.72 C 28.81 143.09 28.95 139.99 28.13 138.84 C 28.95 139.50 30.57 140.81 31.39 141.47 C 31.36 140.00 31.36 138.53 31.36 137.07 Z" />
<path fill="#ffffff" d=" M 147.09 139.14 C 150.89 138.49 154.45 141.09 155.06 144.85 C 152.76 142.47 150.05 140.61 147.09 139.14 Z" />
<path fill="#ffffff" d=" M 31.55 146.17 C 32.75 143.80 35.01 142.32 36.95 140.63 C 37.77 142.04 38.68 143.40 39.69 144.69 C 38.43 146.85 36.66 148.96 33.92 148.91 C 35.22 147.25 36.68 145.71 37.95 144.02 C 35.70 143.21 33.73 145.76 31.55 146.17 Z" />
<path fill="#ffffff" d=" M 144.89 141.69 C 146.78 143.03 150.11 144.24 149.81 147.02 C 149.15 148.19 148.04 149.02 147.13 150.00 C 145.20 148.59 143.27 147.13 141.78 145.24 C 144.30 144.97 145.91 147.78 148.34 147.37 C 147.50 145.28 145.41 143.95 144.89 141.69 Z" />
<path fill="#ffffff" d=" M 150.29 143.62 C 151.67 143.19 152.13 143.68 151.68 145.10 C 150.30 145.54 149.84 145.04 150.29 143.62 Z" />
<path fill="#ffffff" d=" M 36.81 152.20 C 37.99 149.86 39.47 147.68 40.86 145.46 C 42.15 147.05 43.55 148.55 45.01 149.98 C 43.96 151.44 42.06 152.68 42.28 154.70 C 44.24 154.58 45.24 152.62 46.72 151.60 C 48.79 152.99 50.72 154.57 52.77 156.01 C 53.96 156.89 55.13 157.78 56.29 158.70 C 54.99 158.52 53.70 158.33 52.41 158.12 C 52.91 158.77 53.92 160.07 54.42 160.72 C 53.49 160.64 51.62 160.49 50.68 160.42 C 51.26 160.81 52.40 161.59 52.98 161.98 L 52.23 163.20 C 51.16 162.51 50.09 161.82 49.01 161.14 C 50.10 159.48 51.14 157.79 52.12 156.06 C 49.54 156.50 48.04 158.77 46.09 160.25 C 46.66 157.71 48.45 155.54 48.38 152.84 C 46.39 154.02 44.07 158.13 41.58 155.57 C 38.73 153.54 42.84 150.91 42.50 148.33 C 40.64 149.66 38.88 151.17 36.81 152.20 Z" />
<path fill="#ffffff" d=" M 139.34 147.81 C 141.50 149.48 143.75 151.37 144.15 154.26 C 143.25 153.66 142.35 153.05 141.47 152.43 C 141.03 152.57 140.14 152.86 139.70 153.01 C 140.36 154.18 141.00 155.36 141.63 156.55 C 138.69 155.99 137.03 153.29 135.76 150.85 C 137.08 151.43 138.40 152.02 139.71 152.63 C 139.73 151.02 139.55 149.41 139.34 147.81 Z" />
<path fill="#ffffff" d=" M 144.45 150.31 C 145.88 149.96 146.33 150.46 145.80 151.82 C 144.36 152.17 143.91 151.67 144.45 150.31 Z" />
<path fill="#a30000" d=" M 0.55 154.37 C 5.24 153.91 9.94 153.54 14.59 152.74 C 13.82 157.58 11.53 162.02 8.15 165.56 C 5.90 161.63 2.07 158.70 0.55 154.37 Z" />
<path fill="#a30000" d=" M 168.73 152.74 C 173.83 153.59 178.99 154.07 184.15 154.36 C 180.84 157.85 177.84 161.61 175.10 165.56 C 171.84 161.95 169.42 157.60 168.73 152.74 Z" />
<path fill="#ffffff" d=" M 128.18 157.74 C 129.89 156.72 131.46 155.48 133.04 154.27 C 134.33 155.63 135.60 157.01 136.89 158.38 C 135.77 159.60 134.66 160.82 133.57 162.06 C 132.26 161.00 131.21 156.20 129.50 159.21 C 130.57 161.23 132.06 162.98 133.32 164.88 C 130.29 163.74 128.17 161.03 128.18 157.74 Z" />
<path fill="#a30000" d=" M 15.98 154.63 C 32.80 173.54 55.64 188.12 81.17 190.98 C 81.61 191.82 82.05 192.67 82.49 193.51 L 79.85 193.57 C 80.10 194.10 80.61 195.15 80.86 195.67 C 80.03 195.58 78.35 195.39 77.52 195.29 C 77.98 195.70 78.91 196.52 79.37 196.93 C 78.56 198.50 78.29 200.25 78.01 201.97 C 79.04 202.58 80.08 203.20 81.11 203.81 C 80.42 202.28 79.38 200.85 79.44 199.09 C 80.66 200.03 81.85 201.03 83.03 202.03 C 82.81 200.59 82.60 199.15 82.45 197.70 C 83.17 197.53 84.60 197.19 85.32 197.02 C 84.50 196.45 83.68 195.88 82.86 195.31 C 82.78 193.87 82.65 192.44 82.48 191.01 C 98.68 193.09 115.31 189.76 130.15 183.15 C 144.14 176.86 156.62 167.44 167.02 156.19 C 169.64 162.44 174.00 167.68 178.14 172.97 C 156.96 191.10 131.06 204.88 102.99 207.65 C 91.95 208.23 80.72 208.46 69.85 206.09 C 45.39 201.21 23.38 187.87 5.18 171.15 C 10.51 167.01 13.98 161.00 15.98 154.63 Z" />
<path fill="#ffffff" d=" M 137.89 157.01 C 138.47 157.59 138.47 157.59 137.89 157.01 Z" />
<path fill="#ffffff" d=" M 122.93 161.61 C 123.46 160.69 124.00 159.77 124.55 158.86 C 124.68 160.27 124.80 161.69 124.91 163.12 C 125.21 164.44 125.50 165.76 125.79 167.09 C 124.27 165.67 122.78 164.21 121.26 162.79 C 119.28 163.88 116.17 164.49 117.29 167.44 C 117.96 167.54 119.30 167.72 119.97 167.82 C 119.63 166.81 119.30 165.81 118.96 164.81 C 119.71 164.68 121.20 164.43 121.94 164.31 C 121.62 165.74 122.23 167.75 120.66 168.59 C 118.46 170.73 114.60 167.78 115.44 165.05 C 115.76 162.97 118.31 162.71 119.79 161.78 C 120.83 161.65 121.88 161.66 122.93 161.61 Z" />
<path fill="#ffffff" d=" M 58.39 160.51 C 60.67 159.45 63.49 161.42 62.90 163.98 C 63.11 166.92 58.79 167.94 57.21 165.79 C 55.54 164.18 56.51 161.47 58.39 160.51 Z" />
<path fill="#930684" d=" M 59.11 162.13 C 61.04 159.87 62.85 165.66 59.95 165.32 C 58.13 166.52 57.33 162.55 59.11 162.13 Z" />
<path fill="#ffffff" d=" M 64.66 162.14 C 66.00 162.93 67.33 163.71 68.66 164.52 C 67.74 164.59 65.90 164.71 64.98 164.77 C 65.52 165.21 66.58 166.08 67.12 166.52 C 65.39 167.23 63.72 168.07 62.06 168.92 C 62.90 166.65 63.78 164.39 64.66 162.14 Z" />
<path fill="#ffffff" d=" M 69.78 164.52 C 71.50 165.01 73.22 165.50 74.94 166.00 C 78.51 167.03 82.21 167.47 85.91 167.73 C 86.06 169.20 86.80 170.24 88.13 170.84 C 88.19 170.16 88.31 168.80 88.37 168.11 C 88.80 168.13 89.66 168.16 90.09 168.17 C 89.84 170.45 89.62 172.74 89.36 175.03 C 88.38 173.56 87.60 171.86 85.95 171.02 C 85.81 171.91 85.52 173.68 85.38 174.56 C 85.05 174.13 84.39 173.25 84.06 172.82 C 84.16 171.36 84.32 169.91 84.55 168.46 C 83.52 168.60 81.45 168.86 80.42 168.99 C 80.17 171.04 82.08 171.63 83.05 173.00 C 83.02 175.29 80.40 173.43 79.45 172.71 C 79.13 170.51 79.42 166.64 75.92 167.88 C 76.70 168.53 78.24 169.81 79.02 170.45 C 78.13 170.39 76.36 170.27 75.47 170.21 C 76.15 170.90 77.52 172.29 78.20 172.98 C 77.08 172.80 74.84 172.46 73.72 172.28 C 74.18 170.36 74.61 168.44 74.92 166.49 C 72.49 167.53 72.01 170.31 70.76 172.35 C 70.11 170.50 70.62 168.64 71.22 166.87 C 70.86 166.29 70.14 165.11 69.78 164.52 Z" />
<path fill="#ffffff" d=" M 109.68 165.67 C 110.33 165.35 111.62 164.72 112.27 164.41 C 113.30 165.26 114.35 166.09 115.27 167.06 C 115.62 168.70 114.86 171.14 112.91 171.25 C 110.34 171.40 107.90 172.15 105.53 173.11 C 105.40 172.12 105.12 170.13 104.98 169.13 C 103.98 170.54 104.00 173.16 101.99 173.66 C 98.99 174.87 95.79 170.67 98.38 168.35 C 100.02 166.10 103.15 167.45 104.43 169.39 C 104.45 168.61 104.49 167.04 104.51 166.25 C 106.51 166.62 106.15 169.47 106.95 170.94 C 107.67 170.87 109.12 170.73 109.85 170.67 C 109.45 170.01 108.66 168.70 108.26 168.04 C 108.73 167.25 109.21 166.46 109.68 165.67 Z" />
<path fill="#930684" d=" M 110.82 166.70 C 112.59 165.57 114.04 167.70 113.58 169.35 C 112.47 169.66 111.33 169.78 110.17 169.71 C 110.34 168.69 110.56 167.69 110.82 166.70 Z" />
<path fill="#ffffff" d=" M 163.35 169.47 C 164.50 168.37 165.51 167.03 166.97 166.31 C 168.84 167.06 169.94 168.79 170.41 170.72 C 168.89 169.74 166.46 165.81 165.25 169.19 C 167.29 170.68 168.72 172.72 169.39 175.18 C 167.21 173.46 165.31 171.43 163.35 169.47 Z" />
<path fill="#ffffff" d=" M 94.99 170.93 C 95.18 169.45 95.53 168.01 96.24 166.70 C 96.93 169.43 96.86 172.26 96.40 175.02 C 95.08 173.61 93.82 172.14 92.57 170.67 C 92.51 171.79 92.39 174.03 92.33 175.15 C 89.95 173.18 90.73 169.87 90.67 167.17 C 92.23 168.27 93.64 169.57 94.99 170.93 Z" />
<path fill="#ffffff" d=" M 159.41 168.49 C 161.04 167.96 161.59 168.51 161.04 170.11 C 159.41 170.65 158.87 170.10 159.41 168.49 Z" />
<path fill="#930684" d=" M 99.37 169.53 C 101.01 167.05 103.55 170.10 102.14 172.06 C 100.37 173.51 98.89 171.08 99.37 169.53 Z" />
<path fill="#ffffff" d=" M 161.35 170.08 C 162.90 171.32 164.36 172.65 165.80 174.01 C 164.75 174.84 163.74 175.72 162.78 176.64 C 161.48 175.43 160.11 174.28 158.46 173.57 C 158.66 175.75 159.92 177.55 160.91 179.43 C 160.13 178.96 159.40 178.43 158.71 177.85 C 156.93 176.14 155.39 174.19 154.12 172.08 C 155.37 172.60 156.43 173.44 157.36 174.43 C 158.23 173.71 159.10 172.97 160.06 172.35 C 160.58 172.88 161.64 173.94 162.17 174.48 C 162.55 174.02 162.93 173.56 163.31 173.10 L 161.91 171.90 L 161.35 170.08 Z" />
<path fill="#ffffff" d=" M 24.72 172.61 C 28.65 174.00 31.65 177.07 35.05 179.38 C 35.42 178.75 36.17 177.48 36.54 176.85 C 37.56 177.31 38.60 177.75 39.66 178.13 C 38.97 178.30 37.59 178.63 36.89 178.79 C 36.54 181.98 34.00 184.20 31.91 186.39 C 32.34 185.09 32.81 183.81 33.32 182.54 C 32.56 182.56 31.04 182.61 30.28 182.63 C 30.34 181.97 30.45 180.64 30.50 179.98 C 29.90 180.37 28.71 181.16 28.12 181.55 C 27.13 181.12 26.14 180.70 25.15 180.30 C 24.45 179.45 23.74 178.60 23.03 177.75 C 23.65 175.32 25.41 174.42 27.99 175.55 C 27.17 174.81 25.53 173.35 24.72 172.61 Z" />
<path fill="#a30000" d=" M 25.11 176.66 C 28.51 176.77 23.57 179.70 25.11 176.66 Z" />
<path fill="#ffffff" d=" M 152.86 177.92 C 153.89 177.17 154.90 176.39 155.91 175.61 C 155.59 176.37 154.93 177.91 154.60 178.68 C 155.63 178.47 157.68 178.06 158.71 177.85 L 157.71 178.73 L 159.00 180.10 C 157.67 180.92 156.32 181.72 154.90 182.37 C 155.74 181.36 156.62 180.40 157.49 179.43 C 155.42 179.50 153.34 179.49 151.27 179.53 C 152.14 181.07 153.03 182.59 153.93 184.11 L 152.36 184.08 L 151.87 182.06 C 151.22 183.31 150.78 184.65 150.43 186.02 C 148.39 188.43 146.10 186.66 144.37 184.87 C 144.46 186.51 144.55 188.15 144.63 189.79 C 143.66 189.08 142.69 188.36 141.72 187.65 C 141.69 188.56 141.62 190.36 141.58 191.27 C 139.84 189.90 138.12 188.48 136.69 186.77 C 138.03 187.34 139.34 187.97 140.64 188.65 C 140.62 187.84 140.59 186.22 140.57 185.41 C 141.29 186.00 142.74 187.20 143.46 187.79 C 143.40 186.88 143.28 185.04 143.22 184.12 C 143.60 184.24 144.35 184.48 144.73 184.60 C 145.66 183.16 146.90 181.98 148.20 180.88 L 148.95 182.80 C 150.10 181.05 150.88 178.93 152.86 177.92 Z" />
<path fill="#a30000" d=" M 27.08 178.53 C 28.76 177.91 29.33 178.39 28.79 179.99 C 27.09 180.61 26.52 180.13 27.08 178.53 Z" />
<path fill="#a30000" d=" M 30.21 178.02 C 31.77 177.62 32.34 178.24 31.91 179.89 C 30.33 180.32 29.76 179.70 30.21 178.02 Z" />
<path fill="#a30000" d=" M 32.99 180.29 C 34.41 179.80 34.89 180.25 34.41 181.65 C 32.99 182.14 32.51 181.69 32.99 180.29 Z" />
<path fill="#ffffff" d=" M 45.71 184.61 C 46.70 181.31 50.58 183.95 50.14 186.63 C 49.30 185.92 47.61 184.48 46.77 183.76 C 46.92 185.48 47.09 187.19 47.23 188.91 L 45.76 187.35 C 45.61 188.48 45.32 190.73 45.18 191.85 C 44.29 190.57 43.61 188.89 41.78 188.90 C 42.15 190.30 42.57 191.69 42.93 193.10 C 42.04 192.11 41.17 191.10 40.31 190.08 C 41.14 188.70 41.98 187.33 42.84 185.98 C 43.07 186.45 43.53 187.38 43.77 187.85 C 44.16 187.60 44.96 187.10 45.36 186.85 C 44.71 186.42 43.40 185.56 42.75 185.13 C 43.39 185.18 44.68 185.28 45.32 185.32 L 45.71 184.61 Z" />
<path fill="#a30000" d=" M 147.13 182.42 C 147.74 182.76 148.95 183.44 149.55 183.78 C 149.65 184.92 148.77 185.79 148.31 186.76 C 147.82 186.27 146.84 185.28 146.34 184.79 C 146.54 184.20 146.94 183.01 147.13 182.42 Z" />
<path fill="#930684" d=" M 41.69 183.83 C 43.03 184.09 44.37 184.35 45.71 184.61 L 45.32 185.32 C 44.68 185.28 43.39 185.18 42.75 185.13 C 43.40 185.56 44.71 186.42 45.36 186.85 C 44.96 187.10 44.16 187.60 43.77 187.85 C 43.53 187.38 43.07 186.45 42.84 185.98 C 42.43 185.28 42.10 184.52 41.69 183.83 Z" />
<path fill="#ffffff" d=" M 47.94 188.71 C 47.84 188.04 47.64 186.70 47.54 186.03 L 50.41 186.85 C 49.00 189.31 47.72 191.86 46.03 194.16 C 46.10 192.17 46.88 190.36 47.94 188.71 Z" />
<path fill="#930684" d=" M 127.13 188.18 C 128.77 187.71 129.31 188.28 128.74 189.90 C 127.10 190.37 126.56 189.80 127.13 188.18 Z" />
<path fill="#ffffff" d=" M 131.14 191.07 C 130.74 189.27 133.34 189.47 134.26 188.68 C 133.70 189.28 132.58 190.48 132.02 191.08 C 133.85 190.97 135.16 191.64 135.95 193.07 C 135.14 194.28 133.70 194.64 132.46 195.20 L 132.17 193.94 C 132.86 193.73 134.26 193.32 134.96 193.12 C 134.05 192.21 130.65 193.05 131.14 191.07 Z" />
<path fill="#ffffff" d=" M 56.32 189.97 C 61.39 191.91 66.65 193.29 71.94 194.45 C 70.91 196.47 70.18 198.62 69.69 200.84 C 68.11 200.03 65.99 199.84 65.33 197.91 C 66.68 198.47 68.04 199.02 69.39 199.57 C 69.36 198.16 69.30 195.34 69.26 193.93 C 68.79 194.92 67.85 196.90 67.38 197.89 L 66.17 197.75 C 66.27 196.83 66.46 194.99 66.55 194.07 C 64.68 193.73 62.81 193.37 60.96 192.93 C 60.41 194.57 59.85 196.22 59.29 197.87 C 59.69 199.16 60.11 200.46 60.51 201.76 C 59.05 200.04 55.38 201.32 55.49 198.35 C 56.59 197.67 57.74 197.06 58.93 196.52 C 55.02 196.27 56.42 192.50 56.32 189.97 Z" />
<path fill="#ffffff" d=" M 119.72 194.04 C 119.60 192.63 119.31 191.15 119.98 189.82 C 120.63 191.61 121.15 193.44 121.63 195.28 C 122.62 194.29 123.66 193.35 124.76 192.48 C 124.38 193.15 123.63 194.50 123.25 195.18 C 124.28 196.18 125.30 197.19 126.27 198.27 C 124.91 197.70 123.59 197.08 122.29 196.41 C 122.29 197.20 122.28 198.77 122.28 199.56 C 121.26 197.88 120.58 196.04 120.03 194.16 C 119.49 194.68 118.39 195.72 117.84 196.24 C 118.20 197.37 118.55 198.50 118.90 199.63 C 118.52 199.69 117.78 199.80 117.40 199.86 C 117.29 198.88 117.07 196.92 116.95 195.94 C 116.13 197.50 115.63 199.21 114.73 200.73 C 113.29 200.86 111.21 201.28 110.52 199.60 C 109.00 196.99 113.12 193.83 115.15 196.53 C 115.64 195.96 116.13 195.39 116.62 194.82 C 117.65 194.56 118.68 194.30 119.72 194.04 Z" />
<path fill="#ffffff" d=" M 128.00 190.64 C 130.35 191.63 130.69 194.31 131.03 196.53 C 129.43 194.92 128.60 192.78 128.00 190.64 Z" />
<path fill="#a30000" d=" M 57.55 192.49 C 59.19 191.93 59.71 192.48 59.11 194.14 C 57.48 194.70 56.96 194.15 57.55 192.49 Z" />
<path fill="#ffffff" d=" M 107.73 198.77 C 108.10 196.69 108.15 194.37 109.80 192.81 C 109.65 195.93 108.78 198.93 108.06 201.95 C 107.09 200.37 106.14 198.78 105.16 197.20 C 104.68 198.92 104.22 200.65 103.70 202.36 C 102.18 199.75 100.45 197.16 99.81 194.16 C 101.31 195.68 102.54 197.45 103.89 199.11 C 104.11 197.38 104.33 195.65 104.56 193.93 C 105.64 195.52 106.68 197.15 107.73 198.77 Z" />
<path fill="#ffffff" d=" M 62.80 194.50 C 63.62 194.55 65.26 194.67 66.07 194.73 C 65.65 196.08 65.22 197.42 64.77 198.76 C 63.67 198.76 62.56 198.75 61.46 198.74 C 61.24 197.96 60.81 196.42 60.59 195.64 C 61.62 197.17 62.91 197.79 64.47 197.50 C 64.05 196.75 63.22 195.25 62.80 194.50 Z" />
<path fill="#ffffff" d=" M 91.45 194.70 C 92.92 196.57 92.71 198.92 92.48 201.14 C 93.60 201.17 95.83 201.21 96.95 201.23 C 95.39 202.98 93.69 205.41 90.96 204.80 C 88.75 204.75 87.48 202.71 86.79 200.87 C 87.77 200.90 89.74 200.96 90.73 200.99 C 90.53 198.85 90.70 196.72 91.45 194.70 Z" />
<path fill="#a30000" d=" M 112.09 197.21 C 113.41 195.77 115.60 198.14 114.27 199.44 C 112.94 200.89 110.64 198.55 112.09 197.21 Z" />
</svg>
