<?xml version="1.0" encoding="UTF-8" standalone="no"?>
<!-- Generator: Adobe Illustrator 16.0.0, SVG Export Plug-In . SVG Version: 6.00 Build 0)  -->

<svg
   xmlns:dc="http://purl.org/dc/elements/1.1/"
   xmlns:cc="http://creativecommons.org/ns#"
   xmlns:rdf="http://www.w3.org/1999/02/22-rdf-syntax-ns#"
   xmlns:svg="http://www.w3.org/2000/svg"
   xmlns="http://www.w3.org/2000/svg"
   xmlns:xlink="http://www.w3.org/1999/xlink"
   xmlns:sodipodi="http://sodipodi.sourceforge.net/DTD/sodipodi-0.dtd"
   xmlns:inkscape="http://www.inkscape.org/namespaces/inkscape"
   sodipodi:docname="official logo - Copy (2).svg"
   inkscape:version="0.48.5 r10040"
   xml:space="preserve"
   enable-background="new 0 0 841.891 595.279"
   viewBox="0 0 140.33362 174.89691"
   height="174.89691"
   width="140.33362"
   y="0px"
   x="0px"
   id="Layer_1"
   version="1.1"><metadata
     id="metadata61"><rdf:RDF><cc:Work
         rdf:about=""><dc:format>image/svg+xml</dc:format><dc:type
           rdf:resource="http://purl.org/dc/dcmitype/StillImage" /><dc:title></dc:title></cc:Work></rdf:RDF></metadata><defs
     id="defs59"><clipPath
       clipPathUnits="userSpaceOnUse"
       id="clipPath3112"><rect
         style="fill:#000000"
         id="rect3114"
         width="139.95683"
         height="182.55026"
         x="147.25464"
         y="151.83354" /></clipPath></defs><sodipodi:namedview
     pagecolor="#000001"
     bordercolor="#666666"
     borderopacity="1"
     objecttolerance="10"
     gridtolerance="10"
     guidetolerance="10"
     inkscape:pageopacity="0.11764706"
     inkscape:pageshadow="2"
     inkscape:window-width="1366"
     inkscape:window-height="727"
     id="namedview57"
     showgrid="false"
     inkscape:zoom="0.71980815"
     inkscape:cx="154.70155"
     inkscape:cy="63.321866"
     inkscape:window-x="0"
     inkscape:window-y="41"
     inkscape:window-maximized="0"
     inkscape:current-layer="Layer_1"
     fit-margin-top="0"
     fit-margin-left="0.5"
     fit-margin-right="0"
     fit-margin-bottom="0"><sodipodi:guide
       position="-307.14058,-215.38538"
       orientation="0,841.89099"
       id="guide3098" /><sodipodi:guide
       position="534.75041,-215.38538"
       orientation="-595.27899,0"
       id="guide3100" /><sodipodi:guide
       position="534.75041,379.89361"
       orientation="0,-841.89099"
       id="guide3102" /><sodipodi:guide
       position="-307.14058,379.89361"
       orientation="595.27899,0"
       id="guide3104" /></sodipodi:namedview><image
     display="none"
     overflow="visible"
     enable-background="new    "
     width="463.47839"
     height="331.056"
     xlink:href="/home/viyat/Videos/viyat/725424DB.jpeg"
     id="image3"
     style="display:none;overflow:visible"
     x="445.65213"
     y="-170.81381"
     sodipodi:absref="/home/viyat/Videos/viyat/725424DB.jpeg" /><polygon
     display="none"
     points="409.501,252 549.001,224.621 549.001,328.499 409.501,397.942 "
     id="polygon5"
     style="fill:#808285;display:none"
     transform="translate(-307.14058,-204.99671)" /><path
     display="none"
     d="m 260.24942,43.932288 c -43.869,8.683 -128.551,8.683 -170.633005,0 -34.58,-7.134 -18.4,-16.34 24.479005,-20.943 37.102,-3.981 89.705,-3.981 125.986,0 41.932,4.603 56.216,13.809 20.168,20.943 z"
     id="path7"
     inkscape:connector-curvature="0"
     style="fill:none;display:none" /><path
     display="none"
     stroke-miterlimit="10"
     d="m 102.61842,195.93729 c -27.759005,-2.935 -53.759005,-10.935 -76.759005,-28.935 -10,-8 -17.0000003,-18 -17.0000003,-30 -1,-40.999002 46.0000003,-55.999002 81.0010003,-62.999002 4,-1 9,-2 13.000005,-3 37,-3 75,-2 110,12 17,7 34,18.000002 42.897,35.276002"
     id="path9"
     inkscape:connector-curvature="0"
     style="fill:none;stroke:#000000;stroke-width:1;stroke-miterlimit:10;display:none" /><g
     id="g11"
     transform="matrix(1.5882143,0,0,1.3850714,-270.70743,-249.29907)"
     clip-path="url(#clipPath3112)"><g
       id="g13"><path
         d="m 207.663,241.606 c 0,-0.397 0,-0.785 0,-1.172 0,-15.077 0.009,-30.153 -0.02,-45.229 -0.002,-0.996 0.209,-1.438 1.287,-1.648 13.476,-2.626 26.938,-5.311 40.406,-7.98 2.78,-0.552 5.564,-1.082 8.335,-1.677 0.895,-0.19 1.14,-0.006 1.136,0.951 -0.037,10.038 -0.033,20.076 -0.003,30.113 0.002,0.796 -0.241,1.199 -0.95,1.555 -12.384,6.214 -24.755,12.456 -37.128,18.693 -3.922,1.977 -7.839,3.964 -11.766,5.935 -0.378,0.189 -0.728,0.491 -1.297,0.459 z"
         id="path15"
         inkscape:connector-curvature="0"
         style="fill:#ffffff" /><path
         d="m 199.432,202.759 c 0,13.388 -0.014,26.775 0.022,40.163 0.003,1.094 -0.312,1.187 -1.304,1.056 -5.772,-0.762 -11.402,-1.999 -16.611,-4.708 -4.69,-2.44 -8.385,-5.827 -10.07,-11.017 -0.559,-1.718 -0.87,-3.482 -0.618,-5.308 0.054,-0.393 0.019,-0.798 0.019,-1.197 0,-9.994 0,-19.987 0.001,-29.98 0,-1.52 0.003,-1.513 1.466,-1.164 6.188,1.479 12.486,2.24 18.802,2.892 2.581,0.266 5.166,0.51 7.754,0.694 0.766,0.056 0.789,0.444 0.786,1.018 -0.016,2.517 -0.007,5.035 -0.007,7.552 -0.08,-0.001 -0.16,-0.001 -0.24,-0.001 z"
         id="path17"
         inkscape:connector-curvature="0"
         style="fill:#ffffff" /><path
         d="m 176.301,182.482 c 19.081,-2.441 38.24,-3.013 57.479,-2.046 -4.527,0.902 -9.053,1.81 -13.582,2.705 -5.051,0.999 -10.104,1.988 -15.156,2.979 -2.514,0.492 -5.023,0.045 -7.52,-0.133 -6.815,-0.481 -13.598,-1.269 -20.268,-2.82 -0.306,-0.071 -0.605,-0.167 -0.908,-0.251 -0.015,-0.145 -0.03,-0.289 -0.045,-0.434 z"
         id="path19"
         inkscape:connector-curvature="0"
         style="fill:#ffffff" /><path
         d="m 216.545,275.795 c 0,9.354 0,18.708 0,28.062 0,1.085 -0.848,2.145 -1.872,2.384 -0.323,0.074 -0.448,-0.04 -0.462,-0.335 -0.014,-0.318 -0.012,-0.639 -0.012,-0.959 0,-18.668 0,-37.337 0,-56.006 0,-1.355 0.513,-1.966 1.849,-2.315 0.423,-0.111 0.493,0.051 0.495,0.388 0.001,0.32 0.003,0.64 0.003,0.959 -0.001,9.274 -0.001,18.548 -0.001,27.822 z"
         id="path21"
         inkscape:connector-curvature="0"
         style="fill:#ffffff" /><path
         d="m 211.103,306.226 c -2.313,-0.907 -2.313,-0.907 -2.313,-3.142 0,-16.876 0,-33.753 0,-50.63 0,-2.323 0,-2.323 2.313,-3.226 0,18.997 0,37.96 0,56.998 z"
         id="path23"
         inkscape:connector-curvature="0"
         style="fill:#ffffff" /><path
         d="m 235.077,259.5 c 0,-7.039 0,-14.078 0,-21.117 0,-1.273 0.72,-2.107 1.981,-2.349 0.317,-0.062 0.455,0.025 0.467,0.326 0.014,0.319 0.011,0.641 0.011,0.959 0,13.958 0,27.916 0,41.874 0,1.527 -0.507,2.205 -1.934,2.708 -0.395,0.141 -0.516,0.049 -0.521,-0.325 -0.005,-0.28 -0.005,-0.561 -0.005,-0.841 0.001,-7.077 0.001,-14.155 0.001,-21.235 z"
         id="path25"
         inkscape:connector-curvature="0"
         style="fill:#ffffff" /><path
         d="m 232.073,238.688 c 0,5.418 0,10.732 0,16.045 0,8.513 0.005,17.024 -0.016,25.536 -10e-4,0.417 0.307,0.998 -0.28,1.252 -0.376,0.163 -2.05,-0.921 -2.094,-1.303 -0.036,-0.315 -0.014,-0.638 -0.014,-0.958 0,-12.508 0,-25.016 0,-37.524 10e-4,-2.261 10e-4,-2.261 2.404,-3.048 z"
         id="path27"
         inkscape:connector-curvature="0"
         style="fill:#ffffff" /><path
         d="m 252.506,262.224 c 0,-9.862 0,-19.61 0,-29.357 0,-1.279 -0.006,-2.558 0.005,-3.837 0.003,-0.306 -0.131,-0.702 0.206,-0.88 0.622,-0.328 1.258,-0.999 1.908,-0.791 0.461,0.148 0.181,1.013 0.182,1.551 0.015,10.028 0.011,20.058 0.011,30.086 -0.002,2.249 -0.002,2.249 -2.312,3.228 z"
         id="path29"
         inkscape:connector-curvature="0"
         style="fill:#ffffff" /><path
         d="m 249.424,245.827 c 0,4.839 0.014,9.679 -0.025,14.518 -0.003,0.347 0.429,1.185 -0.368,1.052 -0.65,-0.107 -1.695,-0.037 -1.798,-1.159 -0.022,-0.237 -0.004,-0.479 -0.004,-0.72 0,-9.119 0,-18.237 0,-27.355 0,-1.179 0.604,-1.902 1.722,-2.134 0.568,-0.117 0.467,0.27 0.47,0.561 0.011,1.399 0.005,2.8 0.005,4.2 -0.002,3.678 -0.002,7.358 -0.002,11.037 z"
         id="path31"
         inkscape:connector-curvature="0"
         style="fill:#ffffff" /></g><g
       display="none"
       id="g33"
       style="display:none"><path
         display="inline"
         d="m 344.58,257.356 h -52.863 c -6.319,0 -11.333,-1.676 -15.034,-5.027 -3.704,-3.353 -5.556,-8.188 -5.556,-14.509 v -57.076 h 20.59 v 51.798 c 0,2.813 0.829,4.797 2.49,5.945 1.34,0.961 3.51,1.439 6.512,1.439 h 23.271 v -59.184 h 20.59 v 76.614 l 0,0 z"
         id="path35"
         inkscape:connector-curvature="0"
         style="fill:#ffffff;display:inline" /><path
         display="inline"
         d="m 427.802,237.789 c 0,6.074 -1.916,10.855 -5.746,14.341 -3.831,3.484 -8.779,5.227 -14.844,5.227 h -53.343 v -76.612 h 53.343 c 6.83,0 11.875,1.238 15.131,3.714 3.639,2.73 5.459,7.302 5.459,13.716 v 39.614 l 0,0 z m -20.591,-4.566 v -29.304 c 0,-3.768 -1.788,-5.65 -5.363,-5.65 l -27.39,-0.096 v 42.329 h 26.91 c 3.894,-0.001 5.843,-2.426 5.843,-7.279 z"
         id="path37"
         inkscape:connector-curvature="0"
         style="fill:#ffffff;display:inline" /><path
         display="inline"
         d="m 520.022,180.743 -32.273,46.159 v 30.454 h -20.59 v -30.454 l -32.561,-46.159 h 23.75 l 19.058,27.293 18.866,-27.293 h 23.75 z"
         id="path39"
         inkscape:connector-curvature="0"
         style="fill:#ffffff;display:inline" /><path
         display="inline"
         d="m 597.113,257.356 h -20.59 v -18.579 h -32.271 v 18.579 H 523.66 v -59.184 c 0,-11.619 6.514,-17.43 19.536,-17.43 h 53.916 v 76.614 z m -20.59,-34.188 v -24.995 l -25.951,0.096 c -4.215,0 -6.319,2.363 -6.319,7.087 v 17.813 l 32.27,-0.001 0,0 z"
         id="path41"
         inkscape:connector-curvature="0"
         style="fill:#ffffff;display:inline" /><path
         display="inline"
         d="m 727.068,257.356 h -20.59 v -51.798 c 0,-2.877 -0.799,-4.86 -2.394,-5.946 -1.342,-0.959 -3.545,-1.438 -6.608,-1.438 h -23.271 v 59.184 h -20.59 V 205.56 c 0,-2.877 -0.799,-4.86 -2.394,-5.946 -1.341,-0.959 -3.544,-1.438 -6.608,-1.438 h -23.271 v 59.184 h -20.59 v -76.612 h 105.726 c 6.321,0 11.301,1.628 14.939,4.884 3.767,3.448 5.649,8.332 5.649,14.651 l 0.002,57.073 0,0 z"
         id="path43"
         inkscape:connector-curvature="0"
         style="fill:#ffffff;display:inline" /></g><g
       display="none"
       id="g45"
       style="display:none"><path
         display="inline"
         d="m 278.265,271.023 v 2.082 h -4.164 v -4.134 l 2.052,-2.111 h 14.572 l 2.052,2.111 v 6.245 l -11.598,8.297 h 11.598 v 4.164 h -18.676 v -4.164 l 14.542,-10.379 v -2.111 h -10.378 z"
         id="path47"
         inkscape:connector-curvature="0"
         style="fill:#ffffff;display:inline" /><path
         display="inline"
         d="m 297.205,287.677 -2.052,-2.052 v -16.654 l 2.052,-2.111 h 14.572 l 2.052,2.111 v 16.654 l -2.052,2.052 h -14.572 z m 9.814,-16.654 h -7.703 v 9.784 l 7.703,-9.784 z m 2.676,2.796 -7.554,9.695 h 7.554 v -9.695 z"
         id="path49"
         inkscape:connector-curvature="0"
         style="fill:#ffffff;display:inline" /><path
         display="inline"
         d="m 320.07,287.677 v -16.654 h -4.164 v -4.164 h 8.297 v 20.817 l -4.133,0.001 0,0 z"
         id="path51"
         inkscape:connector-curvature="0"
         style="fill:#ffffff;display:inline" /><path
         display="inline"
         d="m 329.228,287.677 -2.053,-2.052 v -4.163 h 4.164 v 2.052 h 10.38 v -5.145 h -8.327 -6.217 v -11.51 h 17.784 v 4.164 h -13.621 v 3.152 H 343.8 l 2.053,2.052 v 9.397 l -2.053,2.052 h -14.572 z"
         id="path53"
         inkscape:connector-curvature="0"
         style="fill:#ffffff;display:inline" /></g></g><text
     display="none"
     enable-background="new    "
     font-size="29.7337"
     id="text55"
     style="font-size:29.7336998px;display:none;font-family:Furore"
     x="282.35922"
     y="218.00259">2015</text>
</svg>