<?xml version="1.0" encoding="UTF-8" standalone="no"?>
<!-- Generator: Adobe Illustrator 16.0.0, SVG Export Plug-In . SVG Version: 6.00 Build 0)  -->

<svg
   xmlns:dc="http://purl.org/dc/elements/1.1/"
   xmlns:cc="http://creativecommons.org/ns#"
   xmlns:rdf="http://www.w3.org/1999/02/22-rdf-syntax-ns#"
   xmlns:svg="http://www.w3.org/2000/svg"
   xmlns="http://www.w3.org/2000/svg"
   xmlns:xlink="http://www.w3.org/1999/xlink"
   xmlns:sodipodi="http://sodipodi.sourceforge.net/DTD/sodipodi-0.dtd"
   xmlns:inkscape="http://www.inkscape.org/namespaces/inkscape"
   version="1.1"
   id="Layer_1"
   x="0px"
   y="0px"
   width="461.99777"
   height="152.36076"
   viewBox="0 0 461.99778 152.36077"
   enable-background="new 0 0 841.891 595.279"
   xml:space="preserve"
   inkscape:version="0.48.5 r10040"
   sodipodi:docname="official logo - Copy.svg"><metadata
     id="metadata61"><rdf:RDF><cc:Work
         rdf:about=""><dc:format>image/svg+xml</dc:format><dc:type
           rdf:resource="http://purl.org/dc/dcmitype/StillImage" /><dc:title></dc:title></cc:Work></rdf:RDF></metadata><defs
     id="defs59" /><sodipodi:namedview
     pagecolor="#000000"
     bordercolor="#666666"
     borderopacity="1"
     objecttolerance="10"
     gridtolerance="10"
     guidetolerance="10"
     inkscape:pageopacity="0.07843137"
     inkscape:pageshadow="2"
     inkscape:window-width="1366"
     inkscape:window-height="727"
     id="namedview57"
     showgrid="false"
     fit-margin-top="0"
     fit-margin-left="0"
     fit-margin-right="0"
     fit-margin-bottom="0"
     inkscape:zoom="0.66041804"
     inkscape:cx="-82.226746"
     inkscape:cy="79.569502"
     inkscape:window-x="0"
     inkscape:window-y="41"
     inkscape:window-maximized="0"
     inkscape:current-layer="g11" /><image
     display="none"
     overflow="visible"
     enable-background="new    "
     width="463.47839"
     height="331.056"
     xlink:href="/home/viyat/Videos/viyat/CEF86A07.jpeg"
     id="image3"
     style="display:none;overflow:visible"
     x="566.46045"
     y="-116.27525"
     sodipodi:absref="/home/viyat/Videos/viyat/CEF86A07.jpeg" /><polygon
     display="none"
     points="549.001,224.621 549.001,328.499 409.501,397.942 409.501,252 "
     id="polygon5"
     style="fill:#808285;display:none"
     transform="translate(-186.33222,-150.45815)" /><path
     display="none"
     d="m 381.05778,98.470853 c -43.869,8.682997 -128.551,8.682997 -170.633,0 -34.58,-7.134 -18.4,-16.34 24.479,-20.943 37.102,-3.981 89.705,-3.981 125.986,0 41.932,4.603 56.216,13.809 20.168,20.943 z"
     id="path7"
     inkscape:connector-curvature="0"
     style="fill:none;display:none" /><path
     display="none"
     stroke-miterlimit="10"
     d="m 223.42678,250.47585 c -27.759,-2.935 -53.759,-10.935 -76.759,-28.935 -10,-8 -17,-18 -17,-30 -1,-40.999 46,-55.999 81.001,-62.999 4,-1 9,-2 13,-3 37,-3 75,-2 110,12 17,7 34,18 42.897,35.276"
     id="path9"
     inkscape:connector-curvature="0"
     style="fill:none;stroke:#000000;stroke-width:1;stroke-miterlimit:10;display:none" /><g
     id="g11"
     transform="translate(-186.33222,-150.45815)"><g
       id="g33"
       transform="matrix(1.0132841,0,0,1.2964432,-88.396458,-83.86359)"><path
         d="m 344.58,257.356 h -52.863 c -6.319,0 -11.333,-1.676 -15.034,-5.027 -3.704,-3.353 -5.556,-8.188 -5.556,-14.509 v -57.076 h 20.59 v 51.798 c 0,2.813 0.829,4.797 2.49,5.945 1.34,0.961 3.51,1.439 6.512,1.439 h 23.271 v -59.184 h 20.59 v 76.614 l 0,0 z"
         id="path35"
         inkscape:connector-curvature="0"
         style="fill:#ffffff" /><path
         d="m 427.802,237.789 c 0,6.074 -1.916,10.855 -5.746,14.341 -3.831,3.484 -8.779,5.227 -14.844,5.227 h -53.343 v -76.612 h 53.343 c 6.83,0 11.875,1.238 15.131,3.714 3.639,2.73 5.459,7.302 5.459,13.716 v 39.614 l 0,0 z m -20.591,-4.566 v -29.304 c 0,-3.768 -1.788,-5.65 -5.363,-5.65 l -27.39,-0.096 v 42.329 h 26.91 c 3.894,-0.001 5.843,-2.426 5.843,-7.279 z"
         id="path37"
         inkscape:connector-curvature="0"
         style="fill:#ffffff" /><path
         d="m 520.022,180.743 -32.273,46.159 v 30.454 h -20.59 v -30.454 l -32.561,-46.159 h 23.75 l 19.058,27.293 18.866,-27.293 h 23.75 z"
         id="path39"
         inkscape:connector-curvature="0"
         style="fill:#ffffff" /><path
         d="m 597.113,257.356 h -20.59 v -18.579 h -32.271 v 18.579 H 523.66 v -59.184 c 0,-11.619 6.514,-17.43 19.536,-17.43 h 53.916 v 76.614 z m -20.59,-34.188 v -24.995 l -25.951,0.096 c -4.215,0 -6.319,2.363 -6.319,7.087 v 17.813 l 32.27,-0.001 0,0 z"
         id="path41"
         inkscape:connector-curvature="0"
         style="fill:#ffffff" /><path
         d="m 727.068,257.356 h -20.59 v -51.798 c 0,-2.877 -0.799,-4.86 -2.394,-5.946 -1.342,-0.959 -3.545,-1.438 -6.608,-1.438 h -23.271 v 59.184 h -20.59 V 205.56 c 0,-2.877 -0.799,-4.86 -2.394,-5.946 -1.341,-0.959 -3.544,-1.438 -6.608,-1.438 h -23.271 v 59.184 h -20.59 v -76.612 h 105.726 c 6.321,0 11.301,1.628 14.939,4.884 3.767,3.448 5.649,8.332 5.649,14.651 l 0.002,57.073 0,0 z"
         id="path43"
         inkscape:connector-curvature="0"
         style="fill:#ffffff" /></g><g
       id="g45"
       transform="matrix(1.5486816,0,0,1.6546129,-64.085211,-173.17516)"><path
         d="m 278.265,271.023 v 2.082 h -4.164 v -4.134 l 2.052,-2.111 h 14.572 l 2.052,2.111 v 6.245 l -11.598,8.297 h 11.598 v 4.164 h -18.676 v -4.164 l 14.542,-10.379 v -2.111 h -10.378 z"
         id="path47"
         inkscape:connector-curvature="0"
         style="fill:#ffffff" /><path
         d="m 297.205,287.677 -2.052,-2.052 v -16.654 l 2.052,-2.111 h 14.572 l 2.052,2.111 v 16.654 l -2.052,2.052 h -14.572 z m 9.814,-16.654 h -7.703 v 9.784 l 7.703,-9.784 z m 2.676,2.796 -7.554,9.695 h 7.554 v -9.695 z"
         id="path49"
         inkscape:connector-curvature="0"
         style="fill:#ffffff" /><path
         d="m 320.07,287.677 v -16.654 h -4.164 v -4.164 h 8.297 v 20.817 l -4.133,0.001 0,0 z"
         id="path51"
         inkscape:connector-curvature="0"
         style="fill:#ffffff" /><path
         d="m 329.228,287.677 -2.053,-2.052 v -4.163 h 4.164 v 2.052 h 10.38 v -5.145 h -8.327 -6.217 v -11.51 h 17.784 v 4.164 h -13.621 v 3.152 H 343.8 l 2.053,2.052 v 9.397 l -2.053,2.052 h -14.572 z"
         id="path53"
         inkscape:connector-curvature="0"
         style="fill:#ffffff" /></g></g><text
     display="none"
     enable-background="new    "
     font-size="29.7337"
     id="text55"
     style="font-size:29.7336998px;display:none;font-family:Furore"
     x="403.16757"
     y="272.54117">2015</text>
</svg>